<?xml version="1.0" standalone="no"?>
<!DOCTYPE svg PUBLIC "-//W3C//DTD SVG 20010904//EN" "http://www.w3.org/TR/2001/REC-SVG-20010904/DTD/svg10.dtd">
<svg version="1.0" xmlns="http://www.w3.org/2000/svg" width="85.000000pt" height="66.000000pt" viewBox="0 0 85.000000 66.000000" preserveAspectRatio="xMidYMid meet">
	<g transform="translate(0.000000,66.000000) scale(0.100000,-0.100000)" fill="#000000" stroke="none">
		<path d="M410 545 l0 -115 -69 0 -69 0 -36 -145 c-42 -167 -40 -155 -23 -155
8 0 20 30 31 78 9 42 24 103 33 135 l16 57 58 0 59 0 0 -76 c0 -56 3 -75 13
-72 7 3 14 32 17 79 5 74 5 74 36 77 68 7 80 -7 108 -125 37 -153 37 -153 51
-153 9 0 2 41 -24 148 l-37 147 -67 3 -67 3 0 99 0 100 44 0 c36 0 48 -5 65
-26 42 -53 12 -117 -59 -129 -52 -9 -52 -25 1 -25 57 0 99 42 99 100 0 23 -5
50 -11 62 -14 27 -69 48 -124 48 l-45 0 0 -115z" />
		<path d="M513 133 c-9 -3 -13 -27 -13 -69 0 -62 1 -64 25 -64 26 0 34 15 13
23 -10 3 -10 9 -1 25 10 16 10 21 0 25 -9 3 -9 8 2 20 12 15 11 17 -10 18 -22
0 -22 1 -5 8 21 8 10 21 -11 14z" />
		<path d="M316 104 c-34 -34 -7 -121 31 -98 10 6 19 19 21 28 5 22 -25 21 -31
-1 -3 -10 -5 2 -5 27 0 25 2 37 5 28 5 -22 33 -24 33 -3 0 24 -36 37 -54 19z" />
		<path d="M577 112 c-15 -3 -17 -12 -15 -55 3 -49 5 -52 31 -53 23 -1 27 3 27
27 0 19 -5 29 -15 29 -9 0 -15 9 -14 23 0 12 3 16 6 10 6 -17 23 -16 23 1 0
16 -18 24 -43 18z m20 -84 c-3 -8 -6 -5 -6 6 -1 11 2 17 5 13 3 -3 4 -12 1
-19z" />
		<path d="M156 79 c-13 -69 -5 -94 22 -67 9 9 12 9 12 0 0 -7 7 -12 15 -12 16
0 15 33 -2 93 -8 30 -40 20 -47 -14z m31 -31 c-3 -7 -5 -2 -5 12 0 14 2 19 5
13 2 -7 2 -19 0 -25z" />
		<path d="M230 56 c0 -47 3 -56 18 -56 32 0 42 15 39 61 -2 40 -5 44 -29 47
-28 3 -28 2 -28 -52z m35 35 c3 -5 1 -12 -5 -16 -5 -3 -10 1 -10 9 0 18 6 21
15 7z m5 -50 c0 -6 -4 -13 -10 -16 -5 -3 -10 1 -10 9 0 9 5 16 10 16 6 0 10
-4 10 -9z" />
		<path d="M388 58 c-5 -62 -4 -65 17 -48 20 17 21 100 1 100 -10 0 -15 -16 -18
-52z" />
		<path d="M430 54 c0 -40 3 -55 13 -52 6 3 14 13 16 24 2 10 9 23 17 27 8 4 14
19 14 32 0 21 -5 25 -30 25 -30 0 -30 0 -30 -56z m37 24 c-3 -8 -6 -5 -6 6 -1
11 2 17 5 13 3 -3 4 -12 1 -19z" />
		<path d="M640 78 c0 -18 -3 -43 -6 -55 -5 -17 -2 -23 10 -23 9 0 16 5 16 11 0
8 5 7 15 -1 23 -19 28 -7 20 49 -6 45 -10 51 -31 51 -20 0 -24 -5 -24 -32z
m27 -30 c-3 -7 -5 -2 -5 12 0 14 2 19 5 13 2 -7 2 -19 0 -25z" />
	</g>
</svg>
