<svg id="Camada_1" data-name="Camada 1" xmlns="http://www.w3.org/2000/svg" viewBox="0 0 430.4 361.6"><defs><style>.cls-1{fill:#fff;}</style></defs><title>jumento de lado</title><path class="cls-1" d="M88,404.6V43H518.4V404.6ZM473.64,106.4a10.63,10.63,0,0,1,1-1.36c10.44-9.42,13.26-33.8-2.27-45.78-2.72-2.1-5-3.14-7.94-.49a17.21,17.21,0,0,1-4.46,2.6c-5.93,2.72-8.84,7.52-10.61,13.63-2.33,8-5.29,15.84-8.08,23.72a38.73,38.73,0,0,1-3,6.52c-1.14,1.94-2.32,4.24-4.12,5.34-9.16,5.56-18.51,10.78-27.81,16.11-6.81,3.9-14.26,6.56-20.09,12.34-4.58,4.55-10.38,7.85-15.39,12-2.16,1.8-3.51,4.56-5.53,6.58s-4.25,4.32-6.84,5.47c-3.6,1.59-7.61,2.3-11.48,3.24-7.23,1.75-14.42,4.4-21.74,4.87-15.11,1-30.3,1-45.46.91-7.41,0-15-.35-22.18-2-18.84-4.32-37.83-5.4-57.06-5.19a72.88,72.88,0,0,0-38.52,11.24,30.9,30.9,0,0,0-13.89,18.28c-3.67,12.7-4.15,25.64-3.29,38.73.3,4.61,1,9.57-.25,13.83-3.64,12.2-8.06,24.18-12.45,36.15-2.84,7.73-3.86,15.34-1.3,23.38a22.28,22.28,0,0,1,1.11,9.78c-1.62,10.62-3.92,21.14-5.69,31.74-.36,2.18-.37,5.28.88,6.71,2.9,3.32,2.05,5.32-.69,8-4.6,4.54-2.65,11.84,3.68,12.29,7.75.56,15.86,2.39,23.37-1.92,1.14-.66,2.82-.48,4.25-.52,6.77-.18,13.53-.22,20.29-.48,2.87-.12,3.37-1.8,1.91-4.07-1.87-2.9-3.42-6.2-5.88-8.49-4.45-4.12-6.3-9.05-6.59-14.86-.16-3.18-.53-6.36-.63-9.55-.42-13.14,1.93-25.42,11.2-35.55,8.88-9.7,17.55-19.59,26.68-29.06a9.48,9.48,0,0,1,7.57-2.28c6.58,1.49,11.58-.27,16.24-4.86a8.27,8.27,0,0,1,6-2c3.24.37,5.45-.45,7.15-3.06a5.73,5.73,0,0,1,6.54-2.64c1.82.39,3.69.57,5.48,1.06,21.64,5.94,43.72,7.36,66,6.78,10.9-.29,21.82-.19,32.73-.17,5,0,6.89,1.6,7.46,5.88q3.52,26.35,7,52.72a35.5,35.5,0,0,1,.1,4.38c0,8.91-.19,17.84.22,26.73.12,2.63,1.35,6.14,3.29,7.53,3.14,2.24,4.93,4.16,3.12,8a49.49,49.49,0,0,0,6.13,3.45c8.87,3.45,18.17,3.77,27.52,3.3,3.35-.18,4.41-2.71,2.16-5.22-3.11-3.46-6.56-6.6-9.79-9.95-1.27-1.32-2.9-2.67-3.42-4.3-2.72-8.63-5.18-17.32-3.37-26.59,1.2-6.12,3-12.39,2.68-18.48-.84-14.41,1.6-28.34,4-42.37.84-4.79,2.7-8.48,7.25-10.67,10.32-4.95,15.18-13.66,16.67-24.63a53.15,53.15,0,0,1,10.51-25.94,83.39,83.39,0,0,0,5.63-8.7c3.56-6,7.05-12.09,10.52-18.17,1.84-3.21,3.53-6.5,5.38-9.7.48-.81,1.35-2.05,2-2,2.74.15,6-.1,8.08,1.25,7.88,5,16.82,8.38,23.29,15.77,4.63,5.28,11.72,4.27,17.25,2.12,4.17-1.61,8.71-5.66,10.25-9.7s1-10.16-1.06-14.19c-5-10.07-11.48-19.41-17.14-29.17-1.61-2.8-3.21-6-3.49-9.1-.47-5.26-2.76-8.27-7.71-9.83A26.51,26.51,0,0,1,473.64,106.4Z" transform="translate(-88 -43)"/><path d="M473.64,106.4a26.51,26.51,0,0,0,13.51,9.49c5,1.56,7.24,4.57,7.71,9.83.28,3.12,1.88,6.3,3.49,9.1,5.66,9.76,12.12,19.1,17.14,29.17,2,4,2.62,10.1,1.06,14.19s-6.08,8.09-10.25,9.7c-5.53,2.15-12.62,3.16-17.25-2.12-6.47-7.39-15.41-10.74-23.29-15.77-2.12-1.35-5.34-1.1-8.08-1.25-.63,0-1.5,1.2-2,2-1.85,3.2-3.54,6.49-5.38,9.7-3.47,6.08-7,12.15-10.52,18.17a83.39,83.39,0,0,1-5.63,8.7,53.15,53.15,0,0,0-10.51,25.94c-1.49,11-6.35,19.68-16.67,24.63-4.55,2.19-6.41,5.88-7.25,10.67-2.43,14-4.87,28-4,42.37.36,6.09-1.48,12.36-2.68,18.48-1.81,9.27.65,18,3.37,26.59.52,1.63,2.15,3,3.42,4.3,3.23,3.35,6.68,6.49,9.79,9.95,2.25,2.51,1.19,5-2.16,5.22-9.35.47-18.65.15-27.52-3.3a49.49,49.49,0,0,1-6.13-3.45c1.81-3.87,0-5.79-3.12-8-1.94-1.39-3.17-4.9-3.29-7.53-.41-8.89-.19-17.82-.22-26.73a35.5,35.5,0,0,0-.1-4.38q-3.46-26.37-7-52.72c-.57-4.28-2.47-5.88-7.46-5.88-10.91,0-21.83-.12-32.73.17-22.32.58-44.4-.84-66-6.78-1.79-.49-3.66-.67-5.48-1.06a5.73,5.73,0,0,0-6.54,2.64c-1.7,2.61-3.91,3.43-7.15,3.06a8.27,8.27,0,0,0-6,2C224,268,219,269.79,212.41,268.3a9.48,9.48,0,0,0-7.57,2.28c-9.13,9.47-17.8,19.36-26.68,29.06-9.27,10.13-11.62,22.41-11.2,35.55.1,3.19.47,6.37.63,9.55.29,5.81,2.14,10.74,6.59,14.86,2.46,2.29,4,5.59,5.88,8.49,1.46,2.27,1,4-1.91,4.07-6.76.26-13.52.3-20.29.48-1.43,0-3.11-.14-4.25.52-7.51,4.31-15.62,2.48-23.37,1.92-6.33-.45-8.28-7.75-3.68-12.29,2.74-2.7,3.59-4.7.69-8-1.25-1.43-1.24-4.53-.88-6.71,1.77-10.6,4.07-21.12,5.69-31.74a22.28,22.28,0,0,0-1.11-9.78c-2.56-8-1.54-15.65,1.3-23.38,4.39-12,8.81-24,12.45-36.15,1.27-4.26.55-9.22.25-13.83-.86-13.09-.38-26,3.29-38.73a30.9,30.9,0,0,1,13.89-18.28,72.88,72.88,0,0,1,38.52-11.24c19.23-.21,38.22.87,57.06,5.19,7.17,1.65,14.77,2,22.18,2,15.16.08,30.35.06,45.46-.91,7.32-.47,14.51-3.12,21.74-4.87,3.87-.94,7.88-1.65,11.48-3.24,2.59-1.15,4.78-3.41,6.84-5.47s3.37-4.78,5.53-6.58c5-4.17,10.81-7.47,15.39-12,5.83-5.78,13.28-8.44,20.09-12.34,9.3-5.33,18.65-10.55,27.81-16.11,1.8-1.1,3-3.4,4.12-5.34a38.73,38.73,0,0,0,3-6.52C444.11,90.84,447.07,83,449.4,75c1.77-6.11,4.68-10.91,10.61-13.63a17.21,17.21,0,0,0,4.46-2.6c2.93-2.65,5.22-1.61,7.94.49,15.53,12,12.71,36.36,2.27,45.78A10.63,10.63,0,0,0,473.64,106.4Zm-95,256.71c.36.78.7,2.23,1.08,2.24a30.21,30.21,0,0,0,4.88-.58l0-1.67-5.88-.05c-.08-.64.08-1.47-.27-1.9-3.6-4.51-3.59-9.68-3.4-15.12.22-6.62,1.13-13.66-.7-19.79-2.74-9.17-3.12-18.22-2.92-27.51.1-4.93.29-9.84-2.9-14.13-.47-.63-.29-1.78-.34-2.7-.28-5.07-.34-10.17-.87-15.21-.29-2.69-1.72-4.91-5.22-4.82a14.36,14.36,0,0,0,0,2.21c1.49,8.73,3.37,17.43,4.43,26.22.9,7.48,0,15.24,1.45,22.58a153.74,153.74,0,0,1,2.35,36C370,356,372.71,360.22,378.64,363.11ZM400.35,365a10,10,0,0,0-1-1.62c-11-10.62-10.12-24.08-8.89-37.54.55-6,2.32-12,2.4-18.05a211.18,211.18,0,0,1,3-34.84c1.63-9.07,5.16-15.56,13.39-20.06,6.64-3.62,10-10.08,10.92-17.65a60.84,60.84,0,0,1,8.35-24.68c8.5-13.8,16.82-27.72,25.21-41.59.66-1.09,1.26-2.22,2-3.57l-11.52-7.22c7.28,3.36,14.42,5.89,22.46,1.73l.47,1.46-4.76,4,16.32,8.73.48-.79c-.57-1.05-1.15-2.09-1.63-3,7.8-1.71,11.7,4.08,16.58,9.64.61-3.82,1-6.18,1.23-7.73,1.55,1.83,3,4.56,5.22,5.9s5.36,1.33,8.64,2l-6.84,5.45a14.77,14.77,0,0,0,3,0c3.95-1.15,10.48-10,10.45-14.1a5.62,5.62,0,0,0-.56-2.68c-5.81-9.94-9.38-21.19-17.63-29.73a21,21,0,0,1-6.3-14.28c-.05-3.63-2-5.3-4.63-6.71a35.9,35.9,0,0,0-4.85-1.77c-9.82-3.55-14.46-11.86-12.34-21.93a35.55,35.55,0,0,0,.77-6.32c.05-2.35-.25-4.7-.4-7L468.72,81c-2.53,4.32-5.09,8.62-7.59,13-1.65,2.84-4.58,5.62.22,8.92l-1.1.55-3.74-1.69-6.05,5.12c.34-3.64,1-6.33.74-8.9-.78-7,1.72-13.35,3.61-19.82.88-3,3.41-3.36,5.52-.91.39.46.76,1,1.74,2.19a61.83,61.83,0,0,0,.77-6.14c.11-5,1.22-6.11,6.65-6.25.6,3.48,1.21,7,1.87,10.78l3.55-4.7.69.52c-.31.62-.62,1.25-1.08,2.2l4.19.86c1.52-4.25-1.46-6.41-3.06-9-2.36-3.79-5.85-6.09-10.39-4.91-5.34,1.38-10.36,3.55-12.16,9.65-1.86,6.32-3.65,12.67-5.8,18.89s-3.57,12.86-7.3,17.84-10,8.13-15.07,12.16c-16.88,13.39-33.67,26.91-50.66,40.16-3.37,2.63-4.33,5.25-3.08,9.2a113,113,0,0,0,16.22,32.22c1.49,2.06,2.39,3.51.4,5.88-.87,1-.87,3.23-.53,4.75.72,3.29,1.91,6.48,3,9.93-3.94.63-5.13-1.34-5.79-4.27-1.39-6.17-2.89-12.32-4.43-18.46a7.94,7.94,0,0,0-1.36-2.41c-5.14-7.59-10.24-15.2-15.5-22.7a52.32,52.32,0,0,0-5.06-5.59c-2.43-2.59-5.1-3.08-8.63-1.91a127.91,127.91,0,0,1-47.43,6.78,65.19,65.19,0,0,0-8.37.3A143.07,143.07,0,0,1,256,172.69c-19.2-3.69-38.33-7.35-58.09-5.23-12.8,1.37-24.72,4.7-35.33,12.18a31.17,31.17,0,0,0-13.1,20.61c-2.55,13.6-1.47,27.26-1.14,40.93a31.34,31.34,0,0,1-1.42,10.09c-4.48,14-9.29,27.89-13.93,41.83-1.54,4.59-.59,8.94,1.81,13.2a59.79,59.79,0,0,0,1.53-13.12c-.09-4.77,2.18-7.81,5.48-10.87,4-3.66,7.32-7.95,11-11.94.82-.89,1.78-1.65,2.68-2.47-1.86,7.22-4.82,11.36-10.75,16.64-1.46,1.3-3.37,2.73-3.79,4.42-1.21,4.74-1.75,9.64-2.53,14.48-.17,1.05-.11,2.13-.32,3.17-2.84,13.6-5.81,27.18-8.45,40.83a10.24,10.24,0,0,0,1.18,6.64c2.95,5,3,6-1.29,9.72-.53.46-1,1-2.06,2.26l18.19-3.4c-2.05-10.4-.62-20.24,1.37-30s2.1-20,10.45-27.24c.64-.55.72-1.71,1.24-2.46,1.87-2.7,3.46-5.73,5.79-8,9.89-9.46,19.71-19,30.12-27.88,9.36-8,18.78-16,30.59-20.49,8.63-3.3,17.44-2.68,26.3-2.41a3.88,3.88,0,0,1,.23.87l-16,1.94c4,3.84,8,6,12.9,6.71,5.78.8,11.53,1.89,17.29,2.85,9.94,1.65,19.86,4.48,29.84,4.7,19,.43,38-.56,57.06-1.11,5.29-.15,6.26-1.39,7.31-6.55a25.35,25.35,0,0,1,2-4.73c8.9,11,9.38,23.81,10.88,36.28,1.47,12.24.14,24.55,3.85,36.87,2.74,9.13,1.34,19.49,1.82,29.31.08,1.57-.25,3.75.62,4.61,3.72,3.61,7.48,7.43,11.93,9.92C393.36,367.06,397.05,365.42,400.35,365ZM205.6,265l-.95-1c-2.08,1.31-4.38,2.37-6.22,4-10.12,8.81-20.74,17.17-30,26.85-6.56,6.9-11.26,15.59-16.62,23.6a10.48,10.48,0,0,0-1.33,4.95c-.6,8.21-1,16.43-1.57,24.63-.26,3.52.94,5.93,3.84,8.12,1.59,1.2,2.15,3.81,3,5.85a12,12,0,0,1,.38,2.95l13.38-5.1c-1.23-2.83-3.06-5.27-3.28-7.84-.78-9-1-18-1.43-26.94-.5-10.7,4.28-19.18,11.17-26.82,9-10,17.9-20,26.84-30C203.81,267.12,204.69,266,205.6,265Zm8.47.46c4.15,1.38,7.49.95,10.27-2.35C220,260.48,216.94,261.14,214.07,265.43Zm-66,91.2c.76,3.37,1.38,6.1,2.09,9.24C154.47,361.6,154.09,359.83,148,356.63Zm336.89-182.4-1.25,1.12c.7,3.87,4.13,5,6.73,7l1.09-1Z" transform="translate(-88 -43)"/><path class="cls-1" d="M400.35,365c-3.3.39-7,2-9.1.84-4.45-2.49-8.21-6.31-11.93-9.92-.87-.86-.54-3-.62-4.61-.48-9.82.92-20.18-1.82-29.31-3.71-12.32-2.38-24.63-3.85-36.87-1.5-12.47-2-25.26-10.88-36.28a25.35,25.35,0,0,0-2,4.73c-1.05,5.16-2,6.4-7.31,6.55-19,.55-38.06,1.54-57.06,1.11-10-.22-19.9-3-29.84-4.7-5.76-1-11.51-2-17.29-2.85-4.91-.68-8.89-2.87-12.9-6.71l16-1.94a3.88,3.88,0,0,0-.23-.87c-8.86-.27-17.67-.89-26.3,2.41-11.81,4.51-21.23,12.54-30.59,20.49C184.21,276,174.39,285.52,164.5,295c-2.33,2.23-3.92,5.26-5.79,8-.52.75-.6,1.91-1.24,2.46C149.12,312.64,149,323,147,332.64s-3.42,19.62-1.37,30l-18.19,3.4c1.1-1.22,1.53-1.8,2.06-2.26,4.3-3.69,4.24-4.72,1.29-9.72a10.24,10.24,0,0,1-1.18-6.64c2.64-13.65,5.61-27.23,8.45-40.83.21-1,.15-2.12.32-3.17.78-4.84,1.32-9.74,2.53-14.48.42-1.69,2.33-3.12,3.79-4.42,5.93-5.28,8.89-9.42,10.75-16.64-.9.82-1.86,1.58-2.68,2.47-3.66,4-7,8.28-11,11.94-3.3,3.06-5.57,6.1-5.48,10.87a59.79,59.79,0,0,1-1.53,13.12c-2.4-4.26-3.35-8.61-1.81-13.2,4.64-13.94,9.45-27.84,13.93-41.83a31.34,31.34,0,0,0,1.42-10.09c-.33-13.67-1.41-27.33,1.14-40.93a31.17,31.17,0,0,1,13.1-20.61c10.61-7.48,22.53-10.81,35.33-12.18,19.76-2.12,38.89,1.54,58.09,5.23a143.07,143.07,0,0,0,37.69,2.54,65.19,65.19,0,0,1,8.37-.3,127.91,127.91,0,0,0,47.43-6.78c3.53-1.17,6.2-.68,8.63,1.91a52.32,52.32,0,0,1,5.06,5.59c5.26,7.5,10.36,15.11,15.5,22.7a7.94,7.94,0,0,1,1.36,2.41c1.54,6.14,3,12.29,4.43,18.46.66,2.93,1.85,4.9,5.79,4.27-1.07-3.45-2.26-6.64-3-9.93-.34-1.52-.34-3.72.53-4.75,2-2.37,1.09-3.82-.4-5.88a113,113,0,0,1-16.22-32.22c-1.25-4-.29-6.57,3.08-9.2,17-13.25,33.78-26.77,50.66-40.16,5.08-4,11.32-7.15,15.07-12.16s5.19-11.74,7.3-17.84,3.94-12.57,5.8-18.89c1.8-6.1,6.82-8.27,12.16-9.65,4.54-1.18,8,1.12,10.39,4.91,1.6,2.57,4.58,4.73,3.06,9l-4.19-.86c.46-1,.77-1.58,1.08-2.2l-.69-.52-3.55,4.7c-.66-3.78-1.27-7.3-1.87-10.78-5.43.14-6.54,1.28-6.65,6.25a61.83,61.83,0,0,1-.77,6.14c-1-1.24-1.35-1.73-1.74-2.19-2.11-2.45-4.64-2.12-5.52.91C452.92,84.62,450.42,91,451.2,98c.28,2.57-.4,5.26-.74,8.9l6.05-5.12,3.74,1.69,1.1-.55c-4.8-3.3-1.87-6.08-.22-8.92,2.5-4.34,5.06-8.64,7.59-13l1.21.08c.15,2.35.45,4.7.4,7a35.55,35.55,0,0,1-.77,6.32c-2.12,10.07,2.52,18.38,12.34,21.93a35.9,35.9,0,0,1,4.85,1.77c2.62,1.41,4.58,3.08,4.63,6.71a21,21,0,0,0,6.3,14.28c8.25,8.54,11.82,19.79,17.63,29.73a5.62,5.62,0,0,1,.56,2.68c0,4.14-6.5,12.95-10.45,14.1a14.77,14.77,0,0,1-3,0l6.84-5.45c-3.28-.69-6.37-.66-8.64-2s-3.67-4.07-5.22-5.9c-.24,1.55-.62,3.91-1.23,7.73-4.88-5.56-8.78-11.35-16.58-9.64.48.87,1.06,1.91,1.63,3l-.48.79-16.32-8.73,4.76-4-.47-1.46c-8,4.16-15.18,1.63-22.46-1.73l11.52,7.22c-.76,1.35-1.36,2.48-2,3.57-8.39,13.87-16.71,27.79-25.21,41.59a60.84,60.84,0,0,0-8.35,24.68c-1,7.57-4.28,14-10.92,17.65-8.23,4.5-11.76,11-13.39,20.06a211.18,211.18,0,0,0-3,34.84c-.08,6-1.85,12-2.4,18.05-1.23,13.46-2.07,26.92,8.89,37.54A10,10,0,0,1,400.35,365ZM157.79,265.51c3.4-5.11,6.16-9.37,6-14.91-.34-12.38-5.3-23.77-7.57-35.74a5.4,5.4,0,0,0-.44-1.06C153.62,231.1,152.79,248,157.79,265.51ZM474.7,132c-2.37-5.11-9.5-7.9-13.69-6s-8,2.53-11.66-1.16c-1.84,2.2-2,4.58.58,5.23,4,1,6.88,2.91,8.42,6.78.16.39.85.57,1.77,1.15-1.06-2.52-1.85-4.38-2.52-6Zm30.2,44.77c.5-.63,2.54-2.64,2.27-3a61.37,61.37,0,0,0-5.87-6.44c-1.05,1.45-2.73,2.78-3,4.36C497.81,174.44,500.68,176.84,504.9,176.8ZM401.72,252.18c3.2-5,2.83-6.91-1.55-9.51C398.34,245.46,398.49,246.47,401.72,252.18Zm37.63-138,7.84,10.66,1.5-.77c-.41-1.67-.31-3.91-1.37-4.9C445.34,117.28,442.67,116.14,439.35,114.15Zm-228.75,99H199C203.53,217.57,206.06,217.6,210.6,213.11Zm213.16-1-9.4-.53,4.76,5.76Zm-227.61,7.46-2.71,4.87h8.2l.14-.84Zm296.19-55.11a15.45,15.45,0,0,0-10.76-9.13ZM204.11,249.57c4.69,3.66,6.82,3.33,8.64-.9ZM143.62,307.1l4.31-7.07C142.3,301.08,141.71,302.07,143.62,307.1Zm228-59.75c.22-.5.43-1,.64-1.5l-8.17-4.42-.86,1.71Z" transform="translate(-88 -43)"/><path class="cls-1" d="M205.6,265c-.91,1.07-1.79,2.15-2.72,3.19-8.94,10-17.84,20.06-26.84,30-6.89,7.64-11.67,16.12-11.17,26.82.42,9,.65,18,1.43,26.94.22,2.57,2,5,3.28,7.84l-13.38,5.1a12,12,0,0,0-.38-2.95c-.89-2-1.45-4.65-3-5.85-2.9-2.19-4.1-4.6-3.84-8.12.59-8.2,1-16.42,1.57-24.63a10.48,10.48,0,0,1,1.33-4.95c5.36-8,10.06-16.7,16.62-23.6,9.23-9.68,19.85-18,30-26.85,1.84-1.6,4.14-2.66,6.22-4Z" transform="translate(-88 -43)"/><path class="cls-1" d="M378.63,363.11c-5.92-2.89-8.61-7.16-8.32-14.19a153.74,153.74,0,0,0-2.35-36c-1.44-7.34-.55-15.1-1.45-22.58-1.06-8.79-2.94-17.49-4.43-26.22a14.36,14.36,0,0,1,0-2.21c3.5-.09,4.93,2.13,5.22,4.82.53,5,.59,10.14.87,15.21.05.92-.13,2.07.34,2.7,3.19,4.29,3,9.2,2.9,14.13-.2,9.29.18,18.34,2.92,27.51,1.83,6.13.92,13.17.7,19.79-.19,5.44-.2,10.61,3.4,15.12.35.43.19,1.26.27,1.9Z" transform="translate(-88 -43)"/><path class="cls-1" d="M214.07,265.43c2.87-4.29,5.88-4.95,10.27-2.35C221.56,266.38,218.22,266.81,214.07,265.43Z" transform="translate(-88 -43)"/><path class="cls-1" d="M148,356.63c6.06,3.2,6.44,5,2.09,9.24C149.41,362.73,148.79,360,148,356.63Z" transform="translate(-88 -43)"/><path class="cls-1" d="M484.92,174.23l6.57,7.11-1.09,1c-2.6-2-6-3.15-6.73-7Z" transform="translate(-88 -43)"/><path class="cls-1" d="M378.68,363.05l5.88.05,0,1.67a30.21,30.21,0,0,1-4.88.58c-.38,0-.72-1.46-1.09-2.24Z" transform="translate(-88 -43)"/><path d="M157.79,265.51c-5-17.55-4.17-34.41-2-51.71a5.4,5.4,0,0,1,.44,1.06c2.27,12,7.23,23.36,7.57,35.74C164,256.14,161.19,260.4,157.79,265.51Zm1-9.9c3.61-5.91,1.67-18.14-3-21.63C156.77,241.17,157.7,247.87,158.77,255.61Z" transform="translate(-88 -43)"/><path d="M474.7,132H457.6c.67,1.61,1.46,3.47,2.52,6-.92-.58-1.61-.76-1.77-1.15-1.54-3.87-4.38-5.75-8.42-6.78-2.53-.65-2.42-3-.58-5.23,3.64,3.69,7.6,3,11.66,1.16S472.33,126.92,474.7,132Z" transform="translate(-88 -43)"/><path d="M504.9,176.8c-4.22,0-7.09-2.36-6.61-5.09.28-1.58,2-2.91,3-4.36a61.37,61.37,0,0,1,5.87,6.44C507.44,174.16,505.4,176.17,504.9,176.8Z" transform="translate(-88 -43)"/><path d="M401.72,252.18c-3.23-5.71-3.38-6.72-1.55-9.51C404.55,245.27,404.92,247.18,401.72,252.18Z" transform="translate(-88 -43)"/><path d="M439.35,114.15c3.32,2,6,3.13,8,5,1.06,1,1,3.23,1.37,4.9l-1.5.77Z" transform="translate(-88 -43)"/><path d="M210.6,213.11c-4.54,4.49-7.07,4.46-11.58,0Z" transform="translate(-88 -43)"/><path d="M423.76,212.09l-4.64,5.23-4.76-5.76Z" transform="translate(-88 -43)"/><path d="M196.15,219.55l5.63,4-.14.84h-8.2Z" transform="translate(-88 -43)"/><path d="M492.34,164.44l-10.76-9.13A15.45,15.45,0,0,1,492.34,164.44Z" transform="translate(-88 -43)"/><path d="M204.11,249.57l8.64-.9C210.93,252.9,208.8,253.23,204.11,249.57Z" transform="translate(-88 -43)"/><path d="M143.62,307.1c-1.91-5-1.32-6,4.31-7.07Z" transform="translate(-88 -43)"/><path d="M371.64,247.35l-8.39-4.21.86-1.71,8.17,4.42C372.07,246.35,371.86,246.85,371.64,247.35Z" transform="translate(-88 -43)"/><path class="cls-1" d="M158.77,255.61c-1.07-7.74-2-14.44-3-21.63C160.44,237.47,162.38,249.7,158.77,255.61Z" transform="translate(-88 -43)"/></svg>