<svg id="Camada_1" data-name="Camada 1" xmlns="http://www.w3.org/2000/svg" viewBox="0 0 375 376.39"><defs><style>.cls-1{fill:#fff;}</style></defs><title>Patas Tras</title><path class="cls-1" d="M513,423.39H138V47H513Q513,235.1,513,423.39Zm-353-96c2.92-4,5.77-8.17,8.93-12.12,4.79-6,4.16-13.12,4.55-20,.15-2.7-.67-5.6,0-8.1,2.32-8.24,5.22-16.19,4.49-25.1-.86-10.58-.35-21.28-1.25-31.85a55.86,55.86,0,0,0-4.23-17.66c-3.56-8-5.17-15.82-2.87-24.43,4.77-17.84,2.09-35.45-2.08-53-.78-3.27-.79-7-2.39-9.75-1.3-2.29-4.44-3.52-6.77-5.22-.7,2.28-2.6,5-1.93,6.76,5.15,13.3,8.52,26.85,7.89,41.22-.26,5.75-.59,11.5-.44,17.24.34,13.84.13,27.2,5,41.17,4.71,13.57,2.7,29.48,3.56,44.36a6.12,6.12,0,0,1-.9,3.12c-4,7.24-6.17,14.81-5.34,23.2s-.31,16.13-6.62,22.62a14,14,0,0,0-3.54,8c-.57,6.61-.31,13.29-.4,19.94-.11,8.29,2.27,10.74,10.67,10.35,2.72-.12,5.38-1.54,8.09-1.61,5.56-.14,11.49-.92,16.63.64,10.9,3.3,17.28-.74,16.88-12.06-.22-6.08-.3-12.18-.78-18.24-.18-2.2-.7-5.11-2.19-6.32-6.08-5-7-11.52-7.24-18.67-.26-6.94-1-13.87-1.8-20.76-.41-3.39-2.1-6.67-2.26-10a187.85,187.85,0,0,1,.06-22.26c.63-8.59.16-18,3.59-25.5,6.26-13.67,9.68-26.84,5.27-41.57a21,21,0,0,1-.32-9.43c2.45-13.67,5.21-27.29,7.94-40.91.44-2.22,1.75-4.37,1.76-6.56,0-1.69-1.41-3.38-2.19-5.07-1.55.78-3.69,1.17-4.53,2.42a44.33,44.33,0,0,0-3.79,8.13c-5.59,13.65-5.46,28-5.18,42.39.1,5.31-1.43,11.19.37,15.81a27.71,27.71,0,0,1-2,23.62c-6.34,11.34-5.51,22.95-5.5,34.61,0,17.21,1.06,34.42,1.83,51.63.16,3.73.2,7.76,1.63,11.06,2.86,6.56,6.66,12.71,10.12,19.13C186.66,346.34,173.39,344.47,160,327.41ZM440.53,119.19C439,129.74,442,138.89,445.72,148c4.39,10.73,5.31,21.62,4.28,33.34-1,11.49-.81,23.78,2.36,34.71,2.23,7.68,5.81,15,6.36,23.25.92,13.72,3.14,27.4-1.44,41-1.66,5-3,10.64-2.22,15.65,1.36,8.94,1.54,16.62-5.91,23.39-2.19,2-2.21,6.61-2.75,10.1A54.22,54.22,0,0,0,446,339c.13,4.83-1.05,10.61,1.17,14.25,3.19,5.23,9.22,4.85,15.53,3.46,6-1.32,12.54.38,18.85.36,4.42,0,9.36.41,13.12-1.37,4.78-2.26,3.36-7.42,2.32-11.84-.47-2,0-4.13-.46-6.11-1.23-5.88,2.38-12.3-2.87-17.84a26,26,0,0,1-7.41-20.93c.47-5.28,1.17-11.17-.61-15.89-4.48-11.82-5.19-23.77-3.87-36,1.14-10.58,2.14-20.89,6.09-31.35,3.44-9.09,1.29-20.37,1.25-30.68-.05-12.63-1.81-25.26,2.54-37.71,2.55-7.27,3.93-15,5.38-22.58.28-1.48-1.55-3.37-2.41-5.08-1.71.94-4.55,1.53-4.95,2.86-2.84,9.46-6.8,19-7.28,28.65-.62,12.75-2.69,25.7,1.49,38.61,1.73,5.34,2,12.86-.51,17.54-6.53,12.15-7.67,24.9-7.48,38,.19,12.51-2.39,25.23,3.44,37.47,2,4.17,1.81,9.68,1.62,14.54-.4,9.83,1.26,18.67,8.84,25.68,4,3.68,3.25,7.19-.73,10.43-11.38,9.24-17.19,9.71-30,2.38-.6-.34-1.15-.8-1.77-1.1-6.5-3.07-7.29-6.94-3.46-12.73,3.22-4.86,7.69-10.11,8-15.43,1.55-23.05,2-46.18,2.34-69.29.08-6.54-.12-13.94-3-19.47a43.39,43.39,0,0,1-5.11-25.27c2.55-24.62-1.15-48.42-8.71-72.17Zm-91,1.31c1.3,7.54.93,16.1,4.34,22.72,4.72,9.14,6.19,18.17,5.72,28-.33,6.92-.68,13.84-1.22,20.74-1.27,16.21,6.41,30.91,7.79,46.6.94,10.58,2.11,21.65,0,31.84-2.16,10.41-4.35,20.54-4.37,31.22,0,6.37-.57,13-7.52,16.66-1.1.58-1.82,2.67-2,4.13-.91,9.63-2,19.28-2.07,28.93,0,2.11,3.74,5.4,6.29,6.06,3.3.84,7.13-.67,10.74-.72,6.78-.09,13.64-.43,20.33.41,5.18.66,8.91.79,12.69-3.93,6.44-8-1.59-16,1-23.92.73-2.26-.58-5.18-1-7.8a1,1,0,0,0-.41-.55c-6.39-4.29-6.63-10.75-6.77-17.58a215.22,215.22,0,0,0-1.84-22.09c-.48-3.88-2.41-7.62-2.61-11.48-.37-7.15,0-14.35.16-21.53.2-9.56,1.3-18.77,4.94-27.93A71.32,71.32,0,0,0,398.57,196c.45-20.75-2.21-41.63,7.82-61.31,2.06-4,.3-10,.3-15.53-5.2,1-6.89,2.31-7.69,6.85-1.28,7.34-.55,15.46-5.87,21.85a7.52,7.52,0,0,0-1.38,4.47c-.08,11.59-.73,23.24.24,34.76.86,10.1,0,19.48-4.42,28.6-1.49,3.06-3.09,6.43-3.23,9.72-.57,14.08-1,28.2-.72,42.29.22,10.28,2.4,20.54,2.38,30.81,0,9.87,2.64,17.86,9.66,24.9,1.29,1.29.6,7.09-1.06,8.39-16.74,13-20.5,12.29-35.36,1.17-4.49-3.36-4.6-6.62-.77-10.88,4.38-4.89,9-9.82,8.46-17.38-.4-6.06-2-13.15.38-18.06,5.59-11.35,4.54-23,4.58-34.67.05-13.33.34-26.55-4.67-39.58-2.74-7.14-2.3-15.6-2.67-23.5-.17-3.55,1.26-7.16,1.85-10.77,2.75-16.92-3.41-32.86-5.79-49.19C360,124.41,359.26,117,349.56,120.5Zm-110.82.79c3.18,11.21,7,22,9.14,33.2,1.4,7.37.11,15.22.48,22.84.73,15-3.28,30.46,4.85,44.86,2.22,3.93,2.69,9.07,3.17,13.73.56,5.48.31,11.05.32,16.58,0,7.43.33,14.89-.17,22.29-.49,7.2-1.82,14.34-2.81,21.51-.81,5.93.31,13.42-2.9,17.45-6,7.49-5.15,15.37-5.68,23.51-.07,1-1.61,2-1.59,3,.07,4.63-3.16,10.28,2.23,13.49,3.38,2,8.25,4,11.65,3.08,8.14-2.24,15.67-2.4,23.6.45,5.75,2.07,13.72.17,14.14-4.63.94-10.62,1.14-22.73-3.19-32-3.77-8.06-6.72-15.4-6.79-24.08,0-3.45,1.26-7.62-.22-10.2-6.4-11.13-5-23.07-4.64-34.86A207.43,207.43,0,0,1,282.87,223c1-5.63,5.64-10.15,5.12-16.72-.93-11.83-1.1-23.73-1.38-35.61-.37-15.63,3.92-30.51,7.77-45.45.34-1.31,1.65-2.38,2.82-4-4.85-1.69-9.47-2.19-10.63,2.87-2.64,11.51-5,23.19-6,34.92-.84,10.06.4,20.3.76,30.45.19,5.12,1.41,10.41.49,15.31-1.2,6.43-5.48,12.46-5.91,18.83-1.05,15.66-1.07,31.44-.65,47.15.22,8.41,3,16.76,3.17,25.17.17,9.08,1.72,17.22,7.5,24.4a98.55,98.55,0,0,1,5.53,8.49C270.53,346.67,266,344.72,247.77,327c1.67-2.09,3.29-4.31,5.1-6.35a30,30,0,0,0,7.51-21.46,163.28,163.28,0,0,1,.22-17.84c.92-15.72,1.06-31.5.78-47.24a60.27,60.27,0,0,0-3.49-18.74c-3.66-10.32-4.24-20.19-3.19-31.31,1.81-19.12,2.1-38.71-6.23-57.11C244.5,118.14,244.72,117.94,238.74,121.29ZM437,96.59c-.42-7.18,4.72-7.67,9.16-6.28,4.12,1.28,7.57,4.71,11.76,7.49.77-1.08,2.64-2.68,2.35-3.46-4.15-11-8.6-21.94-13.18-33.39l3.28-6.43L447.29,53c-10.22,11.17-9.65,28.12-18.86,40.62l-5.33-9.9c1.93-4.78,5.63-9.4,4.62-12.46-2-5.94-7.84-8.56-14.51-8.09-3.44.24-6.89.34-11.42.55,0,9.2.16,18.17-.06,27.14-.15,6.06,2,8.06,8,5.26V83c2.66,1.42,5.39,2,5.78,3.23C418.84,96.91,426.41,98.85,437,96.59ZM204.48,377.81l-.13-3.44c-7.3,0-14.61-.07-21.91.16-.49,0-1.27,2.32-1.3,3.58-.17,6.76,0,13.53-.26,20.29-.06,1.85-.94,3.69-1.45,5.53-5.71-10.85-8.24-22-16.29-30.91-6.89,10.39-12.84,30.84-9.75,34.88l6.3-10.21c3.31.6,9.52.49,10,2,2.28,7.85,6.88,8.89,13.6,6.85.38-.12.89.3,1.34.3,6.86,0,13.72,0,20.59,0l.2-2.45c-5.54-4.06-12.65-.46-19.13-2.63L185.4,394l18.2-2.53-.38-3.5c-3.51,0-7,0-10.55,0-7.47,0-8.35-1.48-5.45-8.39Zm64.84-3.48v29.88l-2.25.5c-4.17-10.43-8.35-20.85-12.57-31.4-6.2,3.71-14.78,26-13.56,33.67,6.18.23,2.12-10.12,10.34-9.28,6.81.69,9,4.11,11,9.13,6.55,0,12.86-.52,19,.14,7.07.75,10.95-2.35,13.46-8.4,3.76-9.07.84-22.13-9.54-24.09C280.6,373.6,275.61,374.33,269.32,374.33ZM189,62c-2.68,7.77-4.95,14.39-7.23,21-3.31-4.48-4.44-9.61-6.9-14-1.33-2.37-4.93-3.48-7.51-5.16.18,2.33-.07,4.79.61,7a183.3,183.3,0,0,0,7.23,20.43c1.14,2.57,4.29,4.41,6.88,6,.52.32,3.44-1.69,3.9-3.07,2.35-7,4.18-14.28,6.41-21.38.4-1.27,1.82-2.22,4.1-4.86v29.5l8.05-.42c0-6.69,0-12.88,0-19.08,0-2.77.28-5.6-.18-8.3-.35-2-1.26-4.88-2.7-5.47s-3.76,1.33-5.72,2.08a4.33,4.33,0,0,1-1.4,0Zm72.25,17c-.11,11.67,5.35,18.92,14.46,18.77,10.45-.19,14-4.56,15.32-17.78,1-10-5.76-16.48-15.77-16.63C266.57,63.32,261.33,69.17,261.23,79.08ZM469.1,72.51c.64-1.13,1.29-2.26,1.94-3.39A66.65,66.65,0,0,0,479,73.59a12,12,0,0,0,5.8.37c.4,0,1-2.42.71-3.49-1.6-5.74-10.54-9.16-16.94-6.65s-7.73,6.15-4.58,13.23a19.25,19.25,0,0,1,.88,3.86c3.54.85,6.94,1.41,10.14,2.52a11.74,11.74,0,0,1,4.65,3.41c.33.37-.88,3.08-1.65,3.22a15.74,15.74,0,0,1-6.66-.23c-1-.26-1.35-2.69-2.39-3.07-1.88-.69-4.05-.58-6.1-.8-.14,2.29-1.31,5.42-.24,6.71,4.36,5.3,10.64,6,16.86,4.42,2.46-.65,5.64-2.94,6.33-5.16,2.64-8.44.23-12.09-8.07-15C474.69,75.84,472,74,469.1,72.51ZM306.34,83l.32,0c0,3,.39,6-.1,8.94-.68,4,.09,5.64,4.57,4.89a93.58,93.58,0,0,1,13.18-1.07c5.08-.13,6.71-3.8,7.24-7.58.62-4.52.14-9.2.06-13.8-.09-5.81-3.84-8.77-8.81-10.06-3.3-.85-6.86-.66-10.31-.87-4.16-.26-6.43.56-5.55,5.87C307.67,73.77,306.61,78.46,306.34,83Zm35.56,6.41c3.54-9.74,11-4.47,16-6.66,2.45-5.38-.66-6.44-5-6.63-3.45-.15-6.89-.35-10.33-.53l-.36-3.39,20.26-4.35c-3.47-2.37-4.95-4-6.73-4.48-14.92-3.73-19.46-.11-19.17,15,0,.69.26,1.37.28,2.06.64,17.52.64,17.61,18.24,16.65,2.07-.12,4.06-1.93,6.08-3-2.07-1.18-4-3-6.24-3.42C350.86,89.91,346.66,89.87,341.9,89.44ZM231.16,74.23c-.51-2.08-.52-4.5-1.62-6.19-3.21-4.93-8.28-5.07-13.47-4.28-6.65,1-10.16,7-6.16,12.27,2.7,3.56,7.86,5.22,11.77,7.94a45.3,45.3,0,0,1,4.92,4.6c-5.3,1.79-9.52,3.68-11.93-1.83-.44-1-3.13-1.35-4.8-1.4-.67,0-2.15,1.86-2,2.38,1.09,2.9,2,7.36,4.05,8.09,4.2,1.49,9.61,2.27,13.6.81,3.41-1.25,7.88-6.18,7.69-9.21-.31-5.08-3.19-10.47-10.24-11-2.69-.21-5.27-2-8.64-3.29C220.82,67.75,224.82,72.47,231.16,74.23ZM488.28,374.55c-3.13,0-5.41-.54-7.23.15s-4.49,2.6-4.49,4c0,9,.52,17.94,1,26.9,0,.66.83,1.85,1.22,1.83,6.13-.4,12.57,0,18.29-1.77,4.7-1.48,7.09-16,4.66-23C499.33,375.77,494.67,372.56,488.28,374.55ZM386.1,406.49c8.89.5,17.11,2.7,24.31-1.94-.08-.74-.15-1.47-.23-2.21H391.9c-.33-3.21-.59-5.85-1-9.45h17.7c-4.29-9.42-12.56-1.55-17-6.53v-6.59c5.88-2.67,13,1.63,19.39-4.75-7.84-.56-14-1.39-20.14-1.19-1.64.06-4.44,3.21-4.54,5.06C385.84,387.86,386.1,396.88,386.1,406.49Zm68.27-11.12c2.79-.19,5.45.22,7.57-.66,3.7-1.55,9-3.19,10.06-6.11,1.28-3.39-.06-10.93-2.28-11.87-5.36-2.24-11.88-1.84-18-2.08-.89,0-2.65,2.23-2.68,3.46q-.31,13.41.06,26.83c0,1,1.77,2,2.72,3,.84-.93,2.28-1.79,2.39-2.8A92.74,92.74,0,0,0,454.37,395.37ZM250.92,96.75V70.32c1.67,0,3,.42,3.85-.08a33.65,33.65,0,0,0,4.4-3.82c-1.65-1-3.24-2.66-5-2.77a99.91,99.91,0,0,0-15.18.1c-1.57.13-3,1.94-4.51,3,1.31,1.2,2.55,3.32,3.95,3.43,4.38.35,5,2.39,4.62,6.29-.47,4.4.33,8.94-.2,13.33C242.2,95.61,243.87,98.27,250.92,96.75ZM383,71.13V96.59c8.25.51,9.06-.41,8.14-7.74-.51-4,0-8.17-.61-12.16-.67-4.38,1.41-6,5.06-7.26,1.43-.48,2.46-2.16,3.67-3.29-1.55-1-3-2.65-4.65-2.78-4.12-.34-8.36.51-12.42,0-4.95-.68-7.82,1-9.72,6ZM364.18,394.22c2,0,4.3,0,6.58,0,7.05-.11,11.15-4.19,11.24-11.16.08-5.57-3.29-8.37-10.69-8.63-3.89-.13-7.78,0-12.15,0v33C367.09,404.42,361.06,398.19,364.18,394.22Z" transform="translate(-138 -47)"/><path d="M160,327.41c13.37,17.06,26.64,18.93,42.71,1.14-3.46-6.42-7.26-12.57-10.12-19.13-1.43-3.3-1.47-7.33-1.63-11.06-.77-17.21-1.82-34.42-1.83-51.63,0-11.66-.84-23.27,5.5-34.61a27.71,27.71,0,0,0,2-23.62c-1.8-4.62-.27-10.5-.37-15.81-.28-14.38-.41-28.74,5.18-42.39a44.33,44.33,0,0,1,3.79-8.13c.84-1.25,3-1.64,4.53-2.42.78,1.69,2.19,3.38,2.19,5.07,0,2.19-1.32,4.34-1.76,6.56-2.73,13.62-5.49,27.24-7.94,40.91a21,21,0,0,0,.32,9.43c4.41,14.73,1,27.9-5.27,41.57-3.43,7.49-3,16.91-3.59,25.5a187.85,187.85,0,0,0-.06,22.26c.16,3.36,1.85,6.64,2.26,10,.83,6.89,1.54,13.82,1.8,20.76.26,7.15,1.16,13.7,7.24,18.67,1.49,1.21,2,4.12,2.19,6.32.48,6.06.56,12.16.78,18.24.4,11.32-6,15.36-16.88,12.06-5.14-1.56-11.07-.78-16.63-.64-2.71.07-5.37,1.49-8.09,1.61-8.4.39-10.78-2.06-10.67-10.35.09-6.65-.17-13.33.4-19.94a14,14,0,0,1,3.54-8c6.31-6.49,7.45-14.27,6.62-22.62s1.36-16,5.34-23.2a6.12,6.12,0,0,0,.9-3.12c-.86-14.88,1.15-30.79-3.56-44.36-4.84-14-4.63-27.33-5-41.17-.15-5.74.18-11.49.44-17.24.63-14.37-2.74-27.92-7.89-41.22-.67-1.75,1.23-4.48,1.93-6.76,2.33,1.7,5.47,2.93,6.77,5.22,1.6,2.79,1.61,6.48,2.39,9.75,4.17,17.53,6.85,35.14,2.08,53-2.3,8.61-.69,16.39,2.87,24.43a55.86,55.86,0,0,1,4.23,17.66c.9,10.57.39,21.27,1.25,31.85.73,8.91-2.17,16.86-4.49,25.1-.7,2.5.12,5.4,0,8.1-.39,6.92.24,14.05-4.55,20C165.79,319.24,162.94,323.43,160,327.41Zm44.19,13.73c-1.16-.6-2.75-2.07-3.54-1.73-6.76,3-13.38,6.25-19.23,9l-20.63-10.21c0,3.23.27,4.58-.05,5.78-2,7.44-.43,10.61,6.5,9.16,9.89-2.05,19.35-.47,29-.07,1.86.08,4.4-2.11,5.59-3.94C203.21,347.13,203.36,344.32,204.21,341.14Z" transform="translate(-138 -47)"/><path d="M440.53,119.19l6.87,1.12c7.56,23.75,11.26,47.55,8.71,72.17a43.39,43.39,0,0,0,5.11,25.27c2.88,5.53,3.08,12.93,3,19.47-.32,23.11-.79,46.24-2.34,69.29-.35,5.32-4.82,10.57-8,15.43-3.83,5.79-3,9.66,3.46,12.73.62.3,1.17.76,1.77,1.1,12.79,7.33,18.6,6.86,30-2.38,4-3.24,4.71-6.75.73-10.43-7.58-7-9.24-15.85-8.84-25.68.19-4.86.37-10.37-1.62-14.54-5.83-12.24-3.25-25-3.44-37.47-.19-13.07.95-25.82,7.48-38,2.52-4.68,2.24-12.2.51-17.54-4.18-12.91-2.11-25.86-1.49-38.61.48-9.66,4.44-19.19,7.28-28.65.4-1.33,3.24-1.92,4.95-2.86.86,1.71,2.69,3.6,2.41,5.08-1.45,7.6-2.83,15.31-5.38,22.58-4.35,12.45-2.59,25.08-2.54,37.71,0,10.31,2.19,21.59-1.25,30.68-4,10.46-5,20.77-6.09,31.35-1.32,12.24-.61,24.19,3.87,36,1.78,4.72,1.08,10.61.61,15.89a26,26,0,0,0,7.41,20.93c5.25,5.54,1.64,12,2.87,17.84.42,2,0,4.15.46,6.11,1,4.42,2.46,9.58-2.32,11.84-3.76,1.78-8.7,1.35-13.12,1.37-6.31,0-12.89-1.68-18.85-.36-6.31,1.39-12.34,1.77-15.53-3.46-2.22-3.64-1-9.42-1.17-14.25a54.22,54.22,0,0,1,.41-9.54c.54-3.49.56-8.11,2.75-10.1,7.45-6.77,7.27-14.45,5.91-23.39-.76-5,.56-10.7,2.22-15.65,4.58-13.63,2.36-27.31,1.44-41-.55-8.24-4.13-15.57-6.36-23.25-3.17-10.93-3.36-23.22-2.36-34.71,1-11.72.11-22.61-4.28-33.34C442,138.89,439,129.74,440.53,119.19ZM471.82,349.4c.28.69.55,1.37.83,2.05,3.61.46,7.24.76,10.82,1.41,4.47.8,9.09.41,10.35-4.2.73-2.68-1.79-6.24-3.25-10.59Zm-1.92,2.89.36-3c-4.31-2.91-8.49-6-13-8.67-2.75-1.6-6.38-2.06-7.06,2.18-.57,3.48-2.18,8.78,3.34,9.66C458.87,353.29,464.45,352.41,469.9,352.29Z" transform="translate(-138 -47)"/><path d="M349.56,120.5c9.7-3.51,10.39,3.91,11.05,8.47,2.38,16.33,8.54,32.27,5.79,49.19-.59,3.61-2,7.22-1.85,10.77.37,7.9-.07,16.36,2.67,23.5,5,13,4.72,26.25,4.67,39.58,0,11.67,1,23.32-4.58,34.67-2.42,4.91-.78,12-.38,18.06.51,7.56-4.08,12.49-8.46,17.38-3.83,4.26-3.72,7.52.77,10.88,14.86,11.12,18.62,11.84,35.36-1.17,1.66-1.3,2.35-7.1,1.06-8.39-7-7-9.67-15-9.66-24.9,0-10.27-2.16-20.53-2.38-30.81-.3-14.09.15-28.21.72-42.29.14-3.29,1.74-6.66,3.23-9.72,4.45-9.12,5.28-18.5,4.42-28.6-1-11.52-.32-23.17-.24-34.76a7.52,7.52,0,0,1,1.38-4.47c5.32-6.39,4.59-14.51,5.87-21.85.8-4.54,2.49-5.83,7.69-6.85,0,5.51,1.76,11.49-.3,15.53-10,19.68-7.37,40.56-7.82,61.31a71.32,71.32,0,0,1-4.81,24.21c-3.64,9.16-4.74,18.37-4.94,27.93-.16,7.18-.53,14.38-.16,21.53.2,3.86,2.13,7.6,2.61,11.48a215.22,215.22,0,0,1,1.84,22.09c.14,6.83.38,13.29,6.77,17.58a1,1,0,0,1,.41.55c.41,2.62,1.72,5.54,1,7.8-2.55,7.92,5.48,15.9-1,23.92-3.78,4.72-7.51,4.59-12.69,3.93-6.69-.84-13.55-.5-20.33-.41-3.61.05-7.44,1.56-10.74.72-2.55-.66-6.3-3.95-6.29-6.06.05-9.65,1.16-19.3,2.07-28.93.14-1.46.86-3.55,2-4.13,6.95-3.65,7.5-10.29,7.52-16.66,0-10.68,2.21-20.81,4.37-31.22,2.11-10.19.94-21.26,0-31.84-1.38-15.69-9.06-30.39-7.79-46.6.54-6.9.89-13.82,1.22-20.74.47-9.79-1-18.82-5.72-28C350.49,136.6,350.86,128,349.56,120.5Zm7.16,217.25c-1.27,3.93-3.29,7.48-3.13,10.94.06,1.54,4.43,4,7,4.15,10.62.59,21.28.71,31.9.39,2-.06,4.8-2.57,5.59-4.59,1-2.48.18-5.64.16-8.5-2.54.2-5.09.37-7.62.61a3.45,3.45,0,0,0-2,.56C378.09,352.18,369,345.64,360,339A26.33,26.33,0,0,0,356.72,337.75Z" transform="translate(-138 -47)"/><path d="M238.74,121.29c6-3.35,5.76-3.15,9.73,5.62,8.33,18.4,8,38,6.23,57.11-1,11.12-.47,21,3.19,31.31a60.27,60.27,0,0,1,3.49,18.74c.28,15.74.14,31.52-.78,47.24a163.28,163.28,0,0,0-.22,17.84,30,30,0,0,1-7.51,21.46c-1.81,2-3.43,4.26-5.1,6.35,18.18,17.76,22.76,19.71,43.67,1.85a98.55,98.55,0,0,0-5.53-8.49c-5.78-7.18-7.33-15.32-7.5-24.4-.15-8.41-3-16.76-3.17-25.17-.42-15.71-.4-31.49.65-47.15.43-6.37,4.71-12.4,5.91-18.83.92-4.9-.3-10.19-.49-15.31-.36-10.15-1.6-20.39-.76-30.45,1-11.73,3.38-23.41,6-34.92,1.16-5.06,5.78-4.56,10.63-2.87-1.17,1.62-2.48,2.69-2.82,4-3.85,14.94-8.14,29.82-7.77,45.45.28,11.88.45,23.78,1.38,35.61.52,6.57-4.16,11.09-5.12,16.72a207.43,207.43,0,0,0-2.54,28.51c-.36,11.79-1.76,23.73,4.64,34.86,1.48,2.58.19,6.75.22,10.2.07,8.68,3,16,6.79,24.08,4.33,9.24,4.13,21.35,3.19,32-.42,4.8-8.39,6.7-14.14,4.63-7.93-2.85-15.46-2.69-23.6-.45-3.4.93-8.27-1.06-11.65-3.08-5.39-3.21-2.16-8.86-2.23-13.49,0-1,1.52-2,1.59-3,.53-8.14-.3-16,5.68-23.51,3.21-4,2.09-11.52,2.9-17.45,1-7.17,2.32-14.31,2.81-21.51.5-7.4.19-14.86.17-22.29,0-5.53.24-11.1-.32-16.58-.48-4.66-.95-9.8-3.17-13.73-8.13-14.4-4.12-29.84-4.85-44.86-.37-7.62.92-15.47-.48-22.84C245.75,143.33,241.92,132.5,238.74,121.29ZM269.58,348l-21.3-10.43C247.1,353.91,253.7,357.32,269.58,348Zm22.31-7.82c-9.63.15-16.35,3.77-20.8,11.68,6.77,0,12.85.83,18.41-.52C291.07,351,291.1,344.27,291.89,340.22Z" transform="translate(-138 -47)"/><path d="M437,96.59c-10.6,2.26-18.17.32-21.48-10.4-.39-1.26-3.12-1.81-5.78-3.23V96.09c-6,2.8-8.17.8-8-5.26.22-9,.06-17.94.06-27.14,4.53-.21,8-.31,11.42-.55,6.67-.47,12.55,2.15,14.51,8.09,1,3.06-2.69,7.68-4.62,12.46l5.33,9.9c9.21-12.5,8.64-29.45,18.86-40.62l3.09,1.55L447.1,61c4.58,11.45,9,22.36,13.18,33.39.29.78-1.58,2.38-2.35,3.46-4.19-2.78-7.64-6.21-11.76-7.49C441.73,88.92,436.59,89.41,437,96.59ZM421.74,73c-.34-.72-.68-1.44-1-2.16H408.48l-.87,2.31C410.07,74.52,412.52,77,415,77,417.22,77,419.49,74.42,421.74,73Z" transform="translate(-138 -47)"/><path d="M204.48,377.81l-17.26,1.78c-2.9,6.91-2,8.35,5.45,8.39,3.52,0,7,0,10.55,0l.38,3.5L185.4,394l.85,7.79c6.48,2.17,13.59-1.43,19.13,2.63l-.2,2.45c-6.87,0-13.73,0-20.59,0-.45,0-1-.42-1.34-.3-6.72,2-11.32,1-13.6-6.85-.44-1.54-6.65-1.43-10-2l-6.3,10.21c-3.09-4,2.86-24.49,9.75-34.88,8.05,8.92,10.58,20.06,16.29,30.91.51-1.84,1.39-3.68,1.45-5.53.22-6.76.09-13.53.26-20.29,0-1.26.81-3.56,1.3-3.58,7.3-.23,14.61-.16,21.91-.16Zm-37.27,14.93c-.64-3.38-1.17-6.24-1.71-9.1l-2.22-.54-3.7,10.15Z" transform="translate(-138 -47)"/><path d="M269.32,374.33c6.29,0,11.28-.73,16,.15,10.38,2,13.3,15,9.54,24.09-2.51,6.05-6.39,9.15-13.46,8.4-6.18-.66-12.49-.14-19-.14-2-5-4.23-8.44-11-9.13-8.22-.84-4.16,9.51-10.34,9.28-1.22-7.63,7.36-30,13.56-33.67,4.22,10.55,8.4,21,12.57,31.4l2.25-.5Zm5.94,5.42c-.29.53-.49.72-.49.91-.06,5.06-.32,10.13,0,15.16.11,2.17,1.25,6.06,2.1,6.11,3.73.23,8.23.42,11.12-1.44,3.72-2.39,3.62-13.26,1-17.27C285.32,377.67,280.34,378.29,275.26,379.75Zm-17.52,13.39c-2.11-4.17-3.53-7-5-9.81l-2.1.67c-.38,2.93-.75,5.86-1.17,9.14Z" transform="translate(-138 -47)"/><path d="M189,62l5.53,4.26a4.33,4.33,0,0,0,1.4,0c2-.75,4.33-2.64,5.72-2.08s2.35,3.46,2.7,5.47c.46,2.7.18,5.53.18,8.3,0,6.2,0,12.39,0,19.08l-8.05.42V68c-2.28,2.64-3.7,3.59-4.1,4.86-2.23,7.1-4.06,14.33-6.41,21.38-.46,1.38-3.38,3.39-3.9,3.07-2.59-1.6-5.74-3.44-6.88-6A183.3,183.3,0,0,1,168,70.83c-.68-2.17-.43-4.63-.61-7,2.58,1.68,6.18,2.79,7.51,5.16,2.46,4.39,3.59,9.52,6.9,14C184,76.42,186.3,69.8,189,62Z" transform="translate(-138 -47)"/><path d="M261.23,79.08c.1-9.91,5.34-15.76,14-15.64C285.25,63.59,292,70,291,80.07c-1.35,13.22-4.87,17.59-15.32,17.78C266.58,98,261.12,90.75,261.23,79.08Zm22.14,2.48c-.23-1.81.24-4.69-1-6.22-1.77-2.22-4.66-4.51-7.26-4.75-1.72-.16-4.39,2.9-5.5,5.08s-.84,4.84-.73,7.28c.2,4.86,1.74,8.4,7.83,7.77C282.3,90.14,283.11,86.42,283.37,81.56Z" transform="translate(-138 -47)"/><path d="M469.1,72.51c2.85,1.49,5.59,3.33,8.59,4.4,8.3,2.93,10.71,6.58,8.07,15-.69,2.22-3.87,4.51-6.33,5.16-6.22,1.63-12.5.88-16.86-4.42-1.07-1.29.1-4.42.24-6.71,2.05.22,4.22.11,6.1.8,1,.38,1.39,2.81,2.39,3.07a15.74,15.74,0,0,0,6.66.23c.77-.14,2-2.85,1.65-3.22A11.74,11.74,0,0,0,475,83.43c-3.2-1.11-6.6-1.67-10.14-2.52a19.25,19.25,0,0,0-.88-3.86C460.79,70,462,66.38,468.52,63.82s15.34.91,16.94,6.65c.3,1.07-.31,3.44-.71,3.49a12,12,0,0,1-5.8-.37A66.65,66.65,0,0,1,471,69.12C470.39,70.25,469.74,71.38,469.1,72.51Z" transform="translate(-138 -47)"/><path d="M306.34,83c.27-4.57,1.33-9.26.6-13.66-.88-5.31,1.39-6.13,5.55-5.87,3.45.21,7,0,10.31.87,5,1.29,8.72,4.25,8.81,10.06.08,4.6.56,9.28-.06,13.8-.53,3.78-2.16,7.45-7.24,7.58a93.58,93.58,0,0,0-13.18,1.07c-4.48.75-5.25-.86-4.57-4.89.49-2.9.1-5.95.1-8.94Zm6.48-2.15c2,3.09-3.83,9.56,4.62,9.73,4.35.09,8.49-4.74,8.37-9.85-.12-5.29-2.28-10-7.85-10.25C309.66,70.14,314.75,77.31,312.82,80.88Z" transform="translate(-138 -47)"/><path d="M341.9,89.44c4.76.43,9,.47,13,1.29,2.22.46,4.17,2.24,6.24,3.42-2,1-4,2.84-6.08,3-17.6,1-17.6.87-18.24-16.65,0-.69-.27-1.37-.28-2.06-.29-15.11,4.25-18.73,19.17-15,1.78.44,3.26,2.11,6.73,4.48l-20.26,4.35.36,3.39c3.44.18,6.88.38,10.33.53,4.32.19,7.43,1.25,5,6.63C352.91,85,345.44,79.7,341.9,89.44Z" transform="translate(-138 -47)"/><path d="M231.16,74.23c-6.34-1.76-10.34-6.48-16.79-1.16,3.37,1.34,5.95,3.08,8.64,3.29,7.05.58,9.93,6,10.24,11,.19,3-4.28,8-7.69,9.21-4,1.46-9.4.68-13.6-.81-2.08-.73-3-5.19-4.05-8.09-.19-.52,1.29-2.4,2-2.38,1.67,0,4.36.38,4.8,1.4,2.41,5.51,6.63,3.62,11.93,1.83a45.3,45.3,0,0,0-4.92-4.6c-3.91-2.72-9.07-4.38-11.77-7.94-4-5.27-.49-11.26,6.16-12.27,5.19-.79,10.26-.65,13.47,4.28C230.64,69.73,230.65,72.15,231.16,74.23Z" transform="translate(-138 -47)"/><path d="M488.28,374.55c6.39-2,11.05,1.22,13.43,8.07,2.43,7,0,21.54-4.66,23-5.72,1.79-12.16,1.37-18.29,1.77-.39,0-1.19-1.17-1.22-1.83-.46-9-1-17.93-1-26.9,0-1.38,2.68-3.3,4.49-4S485.15,374.55,488.28,374.55Zm-5.08,29.24c4.28-1.7,10.75-2.29,12.32-5.38,2.12-4.16,1.47-10.55,0-15.34-.66-2.12-6.27-2.89-9.77-3.65-.37-.07-2.24,4.11-2.4,6.39C483,391.11,483.2,396.46,483.2,403.79Z" transform="translate(-138 -47)"/><path d="M386.1,406.49c0-9.61-.26-18.63.22-27.6.1-1.85,2.9-5,4.54-5.06,6.13-.2,12.3.63,20.14,1.19-6.39,6.38-13.51,2.08-19.39,4.75v6.59c4.47,5,12.74-2.89,17,6.53h-17.7c.37,3.6.63,6.24,1,9.45h18.28c.08.74.15,1.47.23,2.21C403.21,409.19,395,407,386.1,406.49Z" transform="translate(-138 -47)"/><path d="M454.37,395.37a92.74,92.74,0,0,1-.12,9.76c-.11,1-1.55,1.87-2.39,2.8-.95-1-2.69-2-2.72-3q-.36-13.41-.06-26.83c0-1.23,1.79-3.49,2.68-3.46,6.08.24,12.6-.16,18,2.08,2.22.94,3.56,8.48,2.28,11.87-1.1,2.92-6.36,4.56-10.06,6.11C459.82,395.59,457.16,395.18,454.37,395.37Zm1.19-17.26-1.84,1.9c.65,2.66.49,6.07,2.11,7.84,3.14,3.42,7.23,1.44,10.34-.66,1.11-.74,1.45-5.07,1.07-5.23A119.09,119.09,0,0,0,455.56,378.11Z" transform="translate(-138 -47)"/><path d="M250.92,96.75c-7,1.52-8.72-1.14-8-7,.53-4.39-.27-8.93.2-13.33.42-3.9-.24-5.94-4.62-6.29-1.4-.11-2.64-2.23-3.95-3.43,1.5-1,2.94-2.86,4.51-3a99.91,99.91,0,0,1,15.18-.1c1.71.11,3.3,1.8,5,2.77a33.65,33.65,0,0,1-4.4,3.82c-.81.5-2.18.08-3.85.08Z" transform="translate(-138 -47)"/><path d="M383,71.13,372.43,69.3c1.9-5,4.77-6.67,9.72-6,4.06.56,8.3-.29,12.42,0,1.61.13,3.1,1.81,4.65,2.78C398,67.27,397,69,395.55,69.43c-3.65,1.24-5.73,2.88-5.06,7.26.61,4,.1,8.14.61,12.16.92,7.33.11,8.25-8.14,7.74Z" transform="translate(-138 -47)"/><path d="M364.18,394.22c-3.12,4,2.91,10.2-5,13.19v-33c4.37,0,8.26-.11,12.15,0,7.4.26,10.77,3.06,10.69,8.63-.09,7-4.19,11.05-11.24,11.16C368.48,394.26,366.2,394.22,364.18,394.22Zm4.07-2.71,9.48-6.58c-1.12-6.25-5.56-6.6-10-5.93-1.65.25-4.49,2.87-4.26,3.52C364.57,385.65,366.53,388.48,368.25,391.51Z" transform="translate(-138 -47)"/><path class="cls-1" d="M204.21,341.14c-.85,3.18-1,6-2.33,8-1.19,1.83-3.73,4-5.59,3.94-9.68-.4-19.14-2-29,.07-6.93,1.45-8.46-1.72-6.5-9.16.32-1.2.05-2.55.05-5.78l20.63,10.21c5.85-2.8,12.47-6.09,19.23-9C201.46,339.07,203.05,340.54,204.21,341.14Z" transform="translate(-138 -47)"/><path class="cls-1" d="M471.82,349.4l18.75-11.33c1.46,4.35,4,7.91,3.25,10.59-1.26,4.61-5.88,5-10.35,4.2-3.58-.65-7.21-.95-10.82-1.41C472.37,350.77,472.1,350.09,471.82,349.4Z" transform="translate(-138 -47)"/><path class="cls-1" d="M469.9,352.29c-5.45.12-11,1-16.33.16-5.52-.88-3.91-6.18-3.34-9.66.68-4.24,4.31-3.78,7.06-2.18,4.48,2.62,8.66,5.76,13,8.67Z" transform="translate(-138 -47)"/><path class="cls-1" d="M356.72,337.75A26.33,26.33,0,0,1,360,339c9.06,6.64,18.11,13.18,28.61,2.31a3.45,3.45,0,0,1,2-.56c2.53-.24,5.08-.41,7.62-.61,0,2.86.8,6-.16,8.5-.79,2-3.61,4.53-5.59,4.59-10.62.32-21.28.2-31.9-.39-2.52-.14-6.89-2.61-7-4.15C353.43,345.23,355.45,341.68,356.72,337.75Z" transform="translate(-138 -47)"/><path class="cls-1" d="M269.58,348c-15.88,9.28-22.48,5.87-21.3-10.43Z" transform="translate(-138 -47)"/><path class="cls-1" d="M291.89,340.22c-.79,4-.82,10.77-2.39,11.16-5.56,1.35-11.64.52-18.41.52C275.54,344,282.26,340.37,291.89,340.22Z" transform="translate(-138 -47)"/><path class="cls-1" d="M421.74,73c-2.25,1.44-4.52,4-6.74,4-2.48,0-4.93-2.46-7.39-3.85l.87-2.31h12.25C421.06,71.54,421.4,72.26,421.74,73Z" transform="translate(-138 -47)"/><path class="cls-1" d="M167.21,392.74l-7.63.51,3.7-10.15,2.22.54C166,386.5,166.57,389.36,167.21,392.74Z" transform="translate(-138 -47)"/><path class="cls-1" d="M275.26,379.75c5.08-1.46,10.06-2.08,13.69,3.47,2.62,4,2.72,14.88-1,17.27-2.89,1.86-7.39,1.67-11.12,1.44-.85-.05-2-3.94-2.1-6.11-.28-5,0-10.1,0-15.16C274.77,380.47,275,380.28,275.26,379.75Z" transform="translate(-138 -47)"/><path class="cls-1" d="M257.74,393.14h-8.22c.42-3.28.79-6.21,1.17-9.14l2.1-.67C254.21,386.15,255.63,389,257.74,393.14Z" transform="translate(-138 -47)"/><path class="cls-1" d="M283.37,81.56c-.26,4.86-1.07,8.58-6.64,9.16-6.09.63-7.63-2.91-7.83-7.77-.11-2.44-.31-5.24.73-7.28s3.78-5.24,5.5-5.08c2.6.24,5.49,2.53,7.26,4.75C283.61,76.87,283.14,79.75,283.37,81.56Z" transform="translate(-138 -47)"/><path class="cls-1" d="M312.82,80.88c1.93-3.57-3.16-10.74,5.14-10.37,5.57.24,7.73,5,7.85,10.25.12,5.11-4,9.94-8.37,9.85C309,90.44,314.82,84,312.82,80.88Z" transform="translate(-138 -47)"/><path class="cls-1" d="M483.2,403.79c0-7.33-.25-12.68.12-18,.16-2.28,2-6.46,2.4-6.39,3.5.76,9.11,1.53,9.77,3.65,1.5,4.79,2.15,11.18,0,15.34C494,401.5,487.48,402.09,483.2,403.79Z" transform="translate(-138 -47)"/><path class="cls-1" d="M455.56,378.11A119.09,119.09,0,0,1,467.24,382c.38.16,0,4.49-1.07,5.23-3.11,2.1-7.2,4.08-10.34.66-1.62-1.77-1.46-5.18-2.11-7.84Z" transform="translate(-138 -47)"/><path class="cls-1" d="M368.25,391.51c-1.72-3-3.68-5.86-4.78-9-.23-.65,2.61-3.27,4.26-3.52,4.44-.67,8.88-.32,10,5.93Z" transform="translate(-138 -47)"/></svg>