<svg id="Camada_1" data-name="Camada 1" xmlns="http://www.w3.org/2000/svg" viewBox="0 0 491 446.22"><defs><style>.cls-1{fill:#fff;}</style></defs><title>Pata visto de frente</title><path class="cls-1" d="M561,454.22H70V8H561ZM426.9,92c.69,3.62,1.19,6.45,1.77,9.25.8,3.88,1.1,8,2.6,11.56,5.23,12.59,9.54,25.27,7.86,39.22a49,49,0,0,0-.38,8.47c.71,12.45-.77,25.69,3.11,37.09,3.05,9,6.12,17.51,6.61,27,0,.5.41,1,.4,1.48-.47,12.61-.82,25.23-1.5,37.82-.45,8.52-1.4,17-2.08,25.51-.74,9.2-1.58,18.28-9.23,25-1.09,1-1.45,3.17-1.5,4.82-.17,5.74.39,11.53-.15,17.22-.61,6.32,2,10,7.36,12.82,12.79,6.69,26,4.88,38.73,1,5.53-1.69,10.64-5.85,10-13.5-.52-5.9-.27-11.86-.52-17.79-.08-1.66-.21-3.86-1.24-4.86-7.59-7.37-10-16.19-9-26.57.45-4.71.37-10-1.31-14.29-5.77-14.81-4.36-30.13-4.45-45.37-.06-10.48.56-20.81,6.41-30.18a17.92,17.92,0,0,0,2.39-9.24c-.14-12.87-1.07-25.73-1.05-38.6a137.87,137.87,0,0,1,2-24.7c1.75-9.48,5.07-18.67,7.09-28.12.41-1.94-2-4.47-3.05-6.73-2,2-5.21,3.65-5.9,6C480,102.75,480.33,110,477.76,116c-6.47,15.22-2.92,30.68-2.57,46.07.17,7.6,3.85,16.43,1.09,22.51-5.93,13.07-9.32,26-8.59,40.2.77,15,1.19,30.06,2.61,45,.56,5.93,5.51,11.5.76,17.7a2.57,2.57,0,0,0,0,2.25c4.13,7.77,3.14,18,11.23,23.93.35.26-.2,1.73-.35,2.84-12.66-7.89-25.87-3.71-39.27-1.89,2.86-4.89,6.16-8.27,6.82-12.1,2.46-14.19,5.38-28.51,5.63-42.82.33-19.21-1.56-38.47-2.77-57.69-.16-2.58-2.05-5-2.83-7.59-1.92-6.4-5.11-12.84-5.19-19.3-.17-14.08,1.33-28.17,2-42.27.16-3,1.06-7.2-.51-9-6.78-7.68-5.29-17.62-8-26.33C435.24,89.3,434.94,88.43,426.9,92Zm-99.5.52c1.51,3.68,2.74,5.89,3.33,8.27,2.08,8.29,3.2,16.89,6.06,24.88,3.89,10.86,3.6,21.58,2.73,32.8-.94,12.24-3.18,25.63.6,36.65s6.7,21.32,6.3,32.8c-.15,4.35.62,8.73.53,13.09-.15,7.36-.3,14.76-1.11,22.07-.83,7.57-2.76,15-3.64,22.6-1.14,9.82-1.05,19.87-9.68,27.08-1.28,1.07-1.78,3.64-1.83,5.54-.21,7.43-.55,14.91.13,22.28.25,2.72,2.64,6.07,5,7.6,11.32,7.24,24,6.23,36.3,3.88,3.81-.72,9.69-4.12,10.05-6.88,1.37-10.56,3.69-22.41.21-31.74-3-8-6.38-15.4-7-24-.52-7.51-1.61-15-2.4-22.46-.53-5-1.43-10-1.39-14.93.08-11.65.51-23.3,1.06-34.94.15-3.26.34-7,1.93-9.63,8.16-13.63,5.91-28.66,6.41-43.3.35-10.41-1.08-21.05.65-31.18,2-11.53,6.61-22.6,10-33.88,1.13-3.7,1.35-8.16-3.16-8.55-2-.18-5.56,4.26-6.45,7.19-2.21,7.37-3.22,15.09-4.89,22.62-.71,3.19-2.37,6.23-2.67,9.42a137,137,0,0,0-.28,15.83c.15,6.75-.38,13.71,1.05,20.21,2.54,11.51-.08,21.52-5.68,31.41a23.63,23.63,0,0,0-3,10.77c-.33,18.74-.25,37.48-.19,56.22a48,48,0,0,0,1.14,7.45c.6,3.65,2.45,7.63,1.58,10.89-2.44,9.24-1.71,17.31,4.64,24.8,2.13,2.51,3.38,5.76,5.85,10.12-14.14-7.92-27.45-6.54-39-3.12,2.84-7.92,6.25-15.37,8-23.2,1.17-5.14-.68-10.92,0-16.25,1-7.57,4.29-14.94,4.59-22.48.46-11.63-.5-23.34-1.4-35-.64-8.31-1.95-16.59-3.41-24.8-.88-5-3.77-9.81-3.75-14.7.05-16.66,1-33.32,1.6-50,0-1.26.6-2.6.32-3.75-2.17-8.8-4.37-17.59-6.82-26.31-.74-2.6-1.8-6.47-3.62-7.08C333.86,90,330.55,91.82,327.4,92.55ZM123.83,314.81c0-1.6-.32-2.67,0-3,8.08-7.31,8.5-16.92,8.36-26.8-.07-4.33-.87-9.31.9-12.88,4.36-8.76,5.62-17.67,5-27.21-.81-11.63-1.09-23.31-2-34.93a42.87,42.87,0,0,0-3.06-12.2,56.72,56.72,0,0,1-4.28-26c1.91-25.51,3.26-51.1-6-75.73-.83-2.22-3-3.92-4.58-5.85C117,92.48,114.6,95,115,96.92c1.76,9.25,5.24,18.25,6.28,27.54,1.32,11.86.93,23.91,1.22,35.88.24,10.47-.91,21.19,1,31.35,1.94,10.64,7.9,20.43,7.11,31.87-.34,4.84.8,9.8.38,14.62-.82,9.26-2.11,18.48-3.53,27.67-.93,6-4.2,12.27-3.23,17.86,1.29,7.35,1,13.74-2.24,20.22-2.35,4.76-5.94,9.32-6.75,14.33-1.19,7.38-.75,15.11-.24,22.63a10.52,10.52,0,0,0,4.28,7.12c13.33,8.26,27.68,7.5,41.57,2.26,10.07-3.8,10.64-7.7,8.14-19.33-.9-4.17.5-8.84.85-13.29-2.66-4.78-7.31-9.9-8.39-15.7a407,407,0,0,1-5.22-43.39c-.7-9.19.39-18.51.1-27.75-.39-12.45,2.48-23.79,7.26-35.4,3.49-8.48,5.42-19.38,3.31-28-5.83-24,1.27-45.93,7.79-67.88,1.79-6,1.36-7.48-3.56-9.42-1.68,1.6-4.39,3-4.84,4.84-2.52,10.56-4.81,21.2-6.53,31.91-.93,5.78-.66,11.77-.72,17.66-.05,6.06.18,12.12.25,18.17.1,8.18,3.2,18.14-.36,24.17-9.1,15.45-7.22,32-7.94,48-.85,18.87,1.74,37.88,2.25,56.84.18,6.78,1.17,12.82,5.43,18.23,1.05,1.33,1.33,3.26,2.43,6.13C148.09,309.63,136.32,311.31,123.83,314.81Zm81-223.66c1.08,4.3,2.24,8.74,3.3,13.2,2.79,11.79,6.7,23.47,8,35.43,1.35,12.54.18,25.35.08,38-.07,9.61,3.05,18.24,5.94,27.39,3.88,12.27,3.09,26.07,3.9,39.24.39,6.37,1.69,13.58-.66,19-3.59,8.31-2.58,16.27-2.7,24.56-.06,4.36-1.42,8.75-2.59,13-2.51,9.1-10.84,16.79-6.34,27.66.61,1.47-1.12,3.83-1.55,5.83-1.06,5-.68,9,4,12.7,12.18,9.65,25.52,7.19,38.53,3.95,11.41-2.84,13.8-8.15,11.92-19.9-.35-2.22,0-4.55-.41-6.77-.73-4.49-.3-10.18-2.89-13.17-6.61-7.64-7.21-16.08-6.95-25.29.15-5.31.69-11.34-1.47-15.85-4.88-10.21-5-20.83-4.06-31.31,1.35-14.48-.16-29.27,6.87-43.29,3.42-6.81,4.27-16.22,2.93-23.86-3.62-20.63-3.88-40.71,2.47-60.81,2.07-6.54,3.23-13.37,5-20.93-8.3.64-10.25,5-11.25,9.8-2.35,11.21-5.07,22.42-6.34,33.78-1,8.62-.13,17.48.24,26.22.31,7.38,2.36,14.91,1.38,22.07-1.51,11-6,21.58-7.3,32.57-1.35,11.62-.95,23.53-.27,35.26,1,16.77,7.39,32.86,6.18,50.05-.26,3.81,3.36,7.88,5.16,11.76l-35.66,2.3c8.41-9.41,9.56-20.45,7.75-32.26-.49-3.21.08-6.63.43-9.93.77-7.2,2-14.37,2.5-21.59a145.2,145.2,0,0,0,.37-20c-.76-11.69,1.35-23.8-4.7-34.83-1.45-2.64-3.22-5.59-3.29-8.44-.24-10.39,1.09-20.88.15-31.19-1.74-18.87,1.26-38.32-7.13-56.51C214.11,94.06,214,88.37,204.86,91.15Zm224-46c3.55,6.37,5.77,11.34,8.92,15.61,1.67,2.26,5,4.6,7.52,4.59,3.19,0,4.58-2.8,3.6-6.78-.81-3.27.31-7,.27-10.48-.05-4.87.12-9.84-.83-14.57-.43-2.09-3.38-3.66-5.18-5.48-.87,2.11-2.3,4.17-2.5,6.34-.4,4.28-.12,8.63-.12,13-5.06-5.54-8.44-11.14-12.08-16.56-.82-1.23-2.64-2.66-3.85-2.53-1.44.16-3.86,1.85-3.89,2.93-.29,11.3-.18,22.6-.18,34.36C426.69,63.84,426.69,63.84,428.82,45.17ZM279.63,49.42c.75-17-5.31-21.88-23.42-21.27-3.94.13-6.65,1.78-5.94,7.08.82,6.12.3,12.42.41,18.65.2,10.87.21,10.87,11.34,11.44C274.69,66,279.32,61.79,279.63,49.42ZM217.42,28c-9.91-.22-16.93,7.05-17.56,18.18-.52,9.37,7.55,19.69,15.68,20,11.82.52,18.24-6.47,18.55-20.18C234.32,35.88,227.22,28.18,217.42,28ZM489.78,41.15c.85-6.2,5.44-5.06,9.71-5.56,2.93-.34,5.65-2.56,8.46-3.94-2.72-1.22-5.45-3.52-8.16-3.5-17.19.13-17.19.3-17.22,18,0,20.6,0,20.71,20.63,19.12,2.59-.2,5-2.32,7.53-3.55-.28-.89-.57-1.78-.85-2.67-4.7-.4-9.46-.53-14.09-1.34-2.11-.37-4-2.09-6-3.2,2.05-1.65,3.88-4.08,6.22-4.74,2.92-.83,6.25-.2,10-.2.18-1.72.76-5.33.53-5.38C501.11,43,495.51,42.11,489.78,41.15ZM149.89,38.72l1.29-3.7c3.49,1.15,6.95,2.47,10.5,3.4a29.68,29.68,0,0,0,5.76.39c-.31-2.26.12-5.9-1.06-6.53-3.94-2.09-8.56-4.44-12.71-4.11-3.55.28-7.3,3.64-10.09,6.5-3.73,3.81-.7,7.65,2.12,10.18,2.66,2.37,6.46,3.42,9.62,5.29a75.52,75.52,0,0,1,6.23,4.54c-.93,1-1.94,3-2.79,3a23.9,23.9,0,0,1-8.08-2c-2.31-1.07-4.21-3-6.29-4.62L142,52.58c.74,3.21.4,7.56,2.39,9.44,7.43,7,15.73,4.55,24-.08,1.37-5,4.2-11.57-.94-15.65C162.58,42.48,155.8,41.14,149.89,38.72ZM357.82,28.05c-.59,12-1.25,23.33-1.63,34.67-.06,1.92,1.05,3.87,1.61,5.81l3.62-2.44c1.49-3.62,4-7.22,4.08-10.87.05-2.25-2.17-4.87,1.66-4.75,2.09.06,4.16,2.69,6.1,4.32.46.39.19,1.53.52,2.2,3.26,6.84,7.84,8.87,12.52,5.57l-8.16-13.91c7.2-3.18,6.54-9.18,4.94-14-.93-2.81-5.25-5.67-8.48-6.29C369.23,27.3,363.52,28.05,357.82,28.05Zm55.71,14.71c-4.8,0-8.61.34-12.3-.16-1.45-.19-2.64-2.25-4-3.46,1.33-1.11,2.53-2.93,4-3.18,3-.52,6.21.2,9.18-.37,1.9-.37,3.53-2.14,5.29-3.28-1.79-1.39-3.49-3.84-5.37-4-6.55-.5-13.17-.2-20.75-.2,0,11.15-.21,21.86.21,32.55.07,1.74,2.81,4.73,4.49,4.85,7.52.53,15.11.23,22.67.23l1-3c-2-1.34-3.88-3.33-6.09-3.88-3.16-.77-6.71,0-9.86-.86a6.51,6.51,0,0,1-3.83-4.35c-.2-1,2.2-3.58,3.63-3.74,3.36-.38,6.85.26,10.71.51C412.84,48.16,413.12,46,413.53,42.76ZM311.93,58.62c-4.9,0-9.76.35-14.53-.16-2-.22-3.82-2.26-5.71-3.47,1.72-1.76,3.15-4.14,5.24-5.09,1.91-.87,4.63.22,6.8-.32s3.92-2,5.86-3.08c-2-1.45-3.81-3.79-6-4.16-4-.68-8.19-.19-12.52-.19.85-7.24,4.81-6.42,8.8-6.42,4.55,0,10.41,1.94,11.67-7.64-7.93,0-15.77-.46-23.48.35-1.77.19-4.23,4.72-4.35,7.34-.33,6.94.62,13.93.74,20.9.1,5.67.41,10.2,8.37,8.72,4-.74,8.36.77,12.53.6C309.25,65.84,313.07,64.79,311.93,58.62ZM144.43,408c9.41-.44,19.19,3.62,25.8-6.5,3.71-5.67,3.82-19.38-.31-24.11-7.13-8.16-16.27-4.56-25.06-4.7-.2,2.19-.42,3.44-.42,4.7C144.41,387.33,144.43,397.28,144.43,408ZM114.32,48l-2.22,1.37c-1.22-2.25-2.6-4.42-3.61-6.75-1.79-4.13-3.07-8.52-5.19-12.46C102.67,29,99.93,29,98.16,28.4c-.5,1.7-1.76,3.61-1.36,5.06a154.26,154.26,0,0,0,6.32,19.18c2.09,4.92,5.3,9.38,8.1,14.19,7.31-5.16,15.87-32.1,13.18-39.62C117.18,32.58,115.23,40,114.32,48ZM371.21,372.64v32.83c6.9,4.77,20.57,4.77,23.93-1.44,4.06-7.51,5.42-15.9,1.5-24-1.4-2.88-4.18-6.64-6.79-7.06C383.45,372,376.79,372.64,371.21,372.64ZM336.05,64.58V50A95.85,95.85,0,0,0,347,49.87c1.36-.15,3.57-1.81,3.58-2.8a5.11,5.11,0,0,0-2.79-3.84,17,17,0,0,0-6.81-.55c-5.16.37-6.25-2-5-6.41,16.34-1.51,16.34-1.51,13.94-8.23-5.11,0-10.23.24-15.31-.06-5.63-.34-7.07,2.49-6.91,7.45.24,7.64.51,15.31.18,22.93C327.53,65.32,330.09,67.15,336.05,64.58ZM474,372.72v34.57c13.17,3.89,22.17,2.49,25.58-4-5.1,0-9.93-.12-14.75,0-3.73.12-6.59-1.14-5.48-5.11a8.62,8.62,0,0,1,5.38-5.2c3.88-.84,8.07-.24,12.45-.24,0-1.64.19-3.89,0-3.93-5.85-1.08-11.73-1.93-18.18-2.91.24-2.9.46-5.58.72-8.79,4.11,0,7.69.25,11.2-.07a74.72,74.72,0,0,0,8.91-1.88c-.18-.82-.36-1.64-.53-2.47Zm-203.65,35.1.75-2.6c-2-.7-3.93-1.81-6-2-3.31-.3-6.79.53-10-.14-2-.42-5-2.58-5.17-4.17-.24-2.92-.1-6.74,5.36-6.12,4.31.5,8.79-.51,13.19-.84.14-.94.29-1.88.44-2.82-3.94-.82-8.09-2.88-11.76-2.23-9.79,1.74-7.41-3.86-6.63-9,6.5-3.05,14.69,2.37,20-4.76-6.9-.91-13.7-.79-20.49-.95-4.73-.12-6,1.85-5.83,6.53.41,9.63.12,19.29.12,29.07Zm69.92-35.93c0,11.49-.19,21.5.19,31.48.06,1.69,2.59,3.29,5.11,6.25.93-15.59,1-15.94,10.1-15.37,6.91.43,10.17-2.37,10.55-9,.46-8.1-2.93-12.83-9.91-13.27C351.29,371.64,346.19,371.89,340.31,371.89ZM118.09,399.07c11.75-1,11.69-1,17.35,5.7,1.09,1.29,2.85,2,4.31,3,.05-1.95.72-4.15.07-5.82-3.88-9.91-8.07-19.7-12.94-31.42-2.4,2.41-4.82,3.79-5.64,5.82-4.18,10.36-7.95,20.88-11.86,31.35C116.28,409.85,116.64,409.49,118.09,399.07Zm325.17-26.75c0,11.68-.1,22.28.13,32.87,0,1.3,1.79,2.56,2.75,3.84.74-1.5,2-3,2.11-4.51.31-6,1.2-11.16,9.27-10.15,1.39.18,2.9-.85,4.39-1.12,7-1.27,7.27-7.14,7.09-12.08s-3.21-8.76-9-8.83C454.7,372.26,449.37,372.32,443.26,372.32ZM238,408.61l3-1.38c-.26-2.42,0-5.05-.87-7.22-3-7.36-6.19-14.61-9.57-21.79-1.1-2.34-3-4.34-4.46-6.5-2.09,2.53-5.06,4.75-6.11,7.67-3.23,8.94-5.73,18.15-8.78,28.11,1.71-.22,4.48-.16,4.57-.63,2.15-11.18,10.41-7.92,16-7.93ZM461.75,36.2V65.05l2.89,1.25c1.64-2.3,4.51-4.5,4.7-6.92.62-7.61.23-15.3.23-22.72l10.51-3.47c-4.76-5.31-20.44-7.2-26.36-3.71-1.39.81-1.67,3.53-2.63,5.78Zm-280.58-.1v23c0,6.86,1.09,7.51,8.18,4.44V37.71l11.44-6.1L200,28.17c-7.79,0-15.58-.21-23.35.15-1.84.09-3.6,2.07-5.4,3.17a43.6,43.6,0,0,0,5.24,4.22C177.48,36.29,179,36,181.17,36.1Zm-51.72-6.66V65h8V28.85Z" transform="translate(-70 -8)"/><path d="M426.9,92c8-3.6,8.34-2.73,10.93,5.52,2.73,8.71,1.24,18.65,8,26.33,1.57,1.76.67,5.92.51,9-.7,14.1-2.2,28.19-2,42.27.08,6.46,3.27,12.9,5.19,19.3.78,2.59,2.67,5,2.83,7.59,1.21,19.22,3.1,38.48,2.77,57.69-.25,14.31-3.17,28.63-5.63,42.82-.66,3.83-4,7.21-6.82,12.1,13.4-1.82,26.61-6,39.27,1.89.15-1.11.7-2.58.35-2.84-8.09-6-7.1-16.16-11.23-23.93a2.57,2.57,0,0,1,0-2.25c4.75-6.2-.2-11.77-.76-17.7-1.42-14.95-1.84-30-2.61-45-.73-14.17,2.66-27.13,8.59-40.2,2.76-6.08-.92-14.91-1.09-22.51-.35-15.39-3.9-30.85,2.57-46.07,2.57-6,2.24-13.24,4.09-19.66.69-2.38,3.86-4,5.9-6,1.09,2.26,3.46,4.79,3.05,6.73-2,9.45-5.34,18.64-7.09,28.12a137.87,137.87,0,0,0-2,24.7c0,12.87.91,25.73,1.05,38.6a17.92,17.92,0,0,1-2.39,9.24c-5.85,9.37-6.47,19.7-6.41,30.18.09,15.24-1.32,30.56,4.45,45.37,1.68,4.3,1.76,9.58,1.31,14.29-1,10.38,1.44,19.2,9,26.57,1,1,1.16,3.2,1.24,4.86.25,5.93,0,11.89.52,17.79.67,7.65-4.44,11.81-10,13.5-12.78,3.89-25.94,5.7-38.73-1-5.32-2.78-8-6.5-7.36-12.82.54-5.69,0-11.48.15-17.22.05-1.65.41-3.86,1.5-4.82,7.65-6.73,8.49-15.81,9.23-25,.68-8.5,1.63-17,2.08-25.51.68-12.59,1-25.21,1.5-37.82,0-.49-.38-1-.4-1.48-.49-9.45-3.56-18-6.61-27-3.88-11.4-2.4-24.64-3.11-37.09a49,49,0,0,1,.38-8.47c1.68-13.95-2.63-26.63-7.86-39.22-1.5-3.59-1.8-7.68-2.6-11.56C428.09,98.48,427.59,95.65,426.9,92Zm36.28,256.24c4-.54,9.44-.55,14.36-2.24,2.9-1,6.74-4.47,7-7.11.91-9.92-2-20.77-12.79-22.08a64,64,0,0,0-22.23,1.47c-6.35,1.52-11.17,11.3-8.88,19.32,1.09,3.84,7.08,6.73,11.4,9C454.75,348.12,458.49,347.68,463.18,348.27Z" transform="translate(-70 -8)"/><path d="M327.4,92.55c3.15-.73,6.46-2.52,8.88-1.7,1.82.61,2.88,4.48,3.62,7.08,2.45,8.72,4.65,17.51,6.82,26.31.28,1.15-.28,2.49-.32,3.75-.62,16.66-1.55,33.32-1.6,50,0,4.89,2.87,9.72,3.75,14.7,1.46,8.21,2.77,16.49,3.41,24.8.9,11.64,1.86,23.35,1.4,35-.3,7.54-3.56,14.91-4.59,22.48-.72,5.33,1.13,11.11,0,16.25-1.79,7.83-5.2,15.28-8,23.2,11.51-3.42,24.82-4.8,39,3.12-2.47-4.36-3.72-7.61-5.85-10.12-6.35-7.49-7.08-15.56-4.64-24.8.87-3.26-1-7.24-1.58-10.89a48,48,0,0,1-1.14-7.45c-.06-18.74-.14-37.48.19-56.22a23.63,23.63,0,0,1,3-10.77c5.6-9.89,8.22-19.9,5.68-31.41-1.43-6.5-.9-13.46-1.05-20.21a137,137,0,0,1,.28-15.83c.3-3.19,2-6.23,2.67-9.42,1.67-7.53,2.68-15.25,4.89-22.62.89-2.93,4.45-7.37,6.45-7.19,4.51.39,4.29,4.85,3.16,8.55-3.42,11.28-8.06,22.35-10,33.88-1.73,10.13-.3,20.77-.65,31.18-.5,14.64,1.75,29.67-6.41,43.3-1.59,2.66-1.78,6.37-1.93,9.63-.55,11.64-1,23.29-1.06,34.94,0,5,.86,9.95,1.39,14.93.79,7.49,1.88,14.95,2.4,22.46.59,8.63,4,16.06,7,24,3.48,9.33,1.16,21.18-.21,31.74-.36,2.76-6.24,6.16-10.05,6.88-12.34,2.35-25,3.36-36.3-3.88-2.39-1.53-4.78-4.88-5-7.6-.68-7.37-.34-14.85-.13-22.28.05-1.9.55-4.47,1.83-5.54,8.63-7.21,8.54-17.26,9.68-27.08.88-7.57,2.81-15,3.64-22.6.81-7.31,1-14.71,1.11-22.07.09-4.36-.68-8.74-.53-13.09.4-11.48-2.52-21.79-6.3-32.8s-1.54-24.41-.6-36.65c.87-11.22,1.16-21.94-2.73-32.8-2.86-8-4-16.59-6.06-24.88C330.14,98.44,328.91,96.23,327.4,92.55Zm53,240.31c-2.32-4.73-3.4-11.48-7.19-13.79-9.23-5.62-19.87-6.11-29.53-.09-6.76,4.22-8.94,11.26-7.86,18.9.34,2.39,2.36,5.71,4.42,6.49a46.69,46.69,0,0,0,27.3,2.17C378.73,344.1,379,344.5,380.44,332.86Z" transform="translate(-70 -8)"/><path d="M123.83,314.81c12.49-3.5,24.26-5.18,37.2,1.21-1.1-2.87-1.38-4.8-2.43-6.13-4.26-5.41-5.25-11.45-5.43-18.23-.51-19-3.1-38-2.25-56.84.72-16-1.16-32.55,7.94-48,3.56-6,.46-16,.36-24.17-.07-6.05-.3-12.11-.25-18.17.06-5.89-.21-11.88.72-17.66,1.72-10.71,4-21.35,6.53-31.91.45-1.89,3.16-3.24,4.84-4.84,4.92,1.94,5.35,3.38,3.56,9.42-6.52,22-13.62,43.92-7.79,67.88,2.11,8.66.18,19.56-3.31,28-4.78,11.61-7.65,23-7.26,35.4.29,9.24-.8,18.56-.1,27.75A407,407,0,0,0,161.38,302c1.08,5.8,5.73,10.92,8.39,15.7-.35,4.45-1.75,9.12-.85,13.29,2.5,11.63,1.93,15.53-8.14,19.33-13.89,5.24-28.24,6-41.57-2.26a10.52,10.52,0,0,1-4.28-7.12c-.51-7.52-1-15.25.24-22.63.81-5,4.4-9.57,6.75-14.33,3.2-6.48,3.53-12.87,2.24-20.22-1-5.59,2.3-11.84,3.23-17.86,1.42-9.19,2.71-18.41,3.53-27.67.42-4.82-.72-9.78-.38-14.62.79-11.44-5.17-21.23-7.11-31.87-1.87-10.16-.72-20.88-1-31.35-.29-12,.1-24-1.22-35.88-1-9.29-4.52-18.29-6.28-27.54-.37-2,2-4.44,3.16-6.68,1.56,1.93,3.75,3.63,4.58,5.85,9.28,24.63,7.93,50.22,6,75.73a56.72,56.72,0,0,0,4.28,26,42.87,42.87,0,0,1,3.06,12.2c.94,11.62,1.22,23.3,2,34.93.65,9.54-.61,18.45-5,27.21-1.77,3.57-1,8.55-.9,12.88.14,9.88-.28,19.49-8.36,26.8C123.51,312.14,123.83,313.21,123.83,314.81ZM120,337.14c-1.54,5.6,3.37,8.44,9.84,9,6.94.6,14-.13,21,.3,6,.37,12.13-1.25,12.56-6.9.48-6.24-.71-14.76-4.71-18.74-7.79-7.75-18.61-6.94-28.84-3.26C121.52,320.53,121.26,327.73,120,337.14Z" transform="translate(-70 -8)"/><path d="M204.86,91.15c9.12-2.78,9.25,2.91,11.55,7.91,8.39,18.19,5.39,37.64,7.13,56.51.94,10.31-.39,20.8-.15,31.19.07,2.85,1.84,5.8,3.29,8.44,6,11,3.94,23.14,4.7,34.83a145.2,145.2,0,0,1-.37,20c-.54,7.22-1.73,14.39-2.5,21.59-.35,3.3-.92,6.72-.43,9.93,1.81,11.81.66,22.85-7.75,32.26l35.66-2.3c-1.8-3.88-5.42-7.95-5.16-11.76,1.21-17.19-5.22-33.28-6.18-50.05-.68-11.73-1.08-23.64.27-35.26,1.26-11,5.79-21.59,7.3-32.57,1-7.16-1.07-14.69-1.38-22.07-.37-8.74-1.21-17.6-.24-26.22,1.27-11.36,4-22.57,6.34-33.78,1-4.8,2.95-9.16,11.25-9.8-1.79,7.56-2.95,14.39-5,20.93-6.35,20.1-6.09,40.18-2.47,60.81,1.34,7.64.49,17-2.93,23.86-7,14-5.52,28.81-6.87,43.29-1,10.48-.82,21.1,4.06,31.31,2.16,4.51,1.62,10.54,1.47,15.85-.26,9.21.34,17.65,6.95,25.29,2.59,3,2.16,8.68,2.89,13.17.37,2.22.06,4.55.41,6.77,1.88,11.75-.51,17.06-11.92,19.9-13,3.24-26.35,5.7-38.53-3.95-4.68-3.72-5.06-7.75-4-12.7.43-2,2.16-4.36,1.55-5.83-4.5-10.87,3.83-18.56,6.34-27.66,1.17-4.27,2.53-8.66,2.59-13,.12-8.29-.89-16.25,2.7-24.56,2.35-5.43,1.05-12.64.66-19-.81-13.17,0-27-3.9-39.24-2.89-9.15-6-17.78-5.94-27.39.1-12.69,1.27-25.5-.08-38-1.29-12-5.2-23.64-8-35.43C207.1,99.89,205.94,95.45,204.86,91.15ZM240.5,313.72c-5.5,2.18-11,4.27-16.49,6.58-5.92,2.51-4.5,8.14-5.54,12.91-1.68,7.76.69,11.86,8.4,13,3.5.5,7.07,2,10.43,1.6a189.48,189.48,0,0,0,22-4.31c1.21-.29,2.65-2.62,2.74-4.09C263,324.1,255,314,240.5,313.72Z" transform="translate(-70 -8)"/><path d="M428.82,45.17c-2.13,18.67-2.13,18.67-8.32,20.38,0-11.76-.11-23.06.18-34.36,0-1.08,2.45-2.77,3.89-2.93,1.21-.13,3,1.3,3.85,2.53,3.64,5.42,7,11,12.08,16.56,0-4.32-.28-8.67.12-13,.2-2.17,1.63-4.23,2.5-6.34,1.8,1.82,4.75,3.39,5.18,5.48.95,4.73.78,9.7.83,14.57,0,3.51-1.08,7.21-.27,10.48,1,4-.41,6.77-3.6,6.78-2.55,0-5.85-2.33-7.52-4.59C434.59,56.51,432.37,51.54,428.82,45.17Z" transform="translate(-70 -8)"/><path d="M279.63,49.42C279.32,61.79,274.69,66,262,65.32c-11.13-.57-11.14-.57-11.34-11.44-.11-6.23.41-12.53-.41-18.65-.71-5.3,2-6.95,5.94-7.08C274.32,27.54,280.38,32.47,279.63,49.42Zm-8.32-11.73L258.19,35.3V57.46C270.88,60,271.92,58.35,271.31,37.69Z" transform="translate(-70 -8)"/><path d="M217.42,28c9.8.21,16.9,7.91,16.67,18-.31,13.71-6.73,20.7-18.55,20.18-8.13-.35-16.2-10.67-15.68-20C200.49,35,207.51,27.75,217.42,28Zm-5.75,8.26c-3.95,8-3.85,15.39,1.34,21.48,1.07,1.26,7.12-.1,9.57-2,5-3.81,4.08-9.61,2-14.73C222.11,34.94,216.86,35.28,211.67,36.23Z" transform="translate(-70 -8)"/><path d="M489.78,41.15c5.73,1,11.33,1.83,16.84,3.07.23.05-.35,3.66-.53,5.38-3.79,0-7.12-.63-10,.2-2.34.66-4.17,3.09-6.22,4.74,2,1.11,3.85,2.83,6,3.2,4.63.81,9.39.94,14.09,1.34.28.89.57,1.78.85,2.67-2.51,1.23-4.94,3.35-7.53,3.55-20.65,1.59-20.66,1.48-20.63-19.12,0-17.73,0-17.9,17.22-18,2.71,0,5.44,2.28,8.16,3.5-2.81,1.38-5.53,3.6-8.46,3.94C495.22,36.09,490.63,35,489.78,41.15Z" transform="translate(-70 -8)"/><path d="M149.89,38.72c5.91,2.42,12.69,3.76,17.5,7.57,5.14,4.08,2.31,10.68.94,15.65-8.22,4.63-16.52,7.11-24,.08-2-1.88-1.65-6.23-2.39-9.44l2.4-1.52c2.08,1.57,4,3.55,6.29,4.62a23.9,23.9,0,0,0,8.08,2c.85.06,1.86-1.93,2.79-3a75.52,75.52,0,0,0-6.23-4.54c-3.16-1.87-7-2.92-9.62-5.29-2.82-2.53-5.85-6.37-2.12-10.18,2.79-2.86,6.54-6.22,10.09-6.5,4.15-.33,8.77,2,12.71,4.11,1.18.63.75,4.27,1.06,6.53a29.68,29.68,0,0,1-5.76-.39c-3.55-.93-7-2.25-10.5-3.4Z" transform="translate(-70 -8)"/><path d="M357.82,28.05c5.7,0,11.41-.75,16.78.29,3.23.62,7.55,3.48,8.48,6.29,1.6,4.84,2.26,10.84-4.94,14l8.16,13.91c-4.68,3.3-9.26,1.27-12.52-5.57-.33-.67-.06-1.81-.52-2.2-1.94-1.63-4-4.26-6.1-4.32-3.83-.12-1.61,2.5-1.66,4.75-.09,3.65-2.59,7.25-4.08,10.87l-3.62,2.44c-.56-1.94-1.67-3.89-1.61-5.81C356.57,51.38,357.23,40,357.82,28.05Zm6.14,8-1.69,2.28c2.5,1.63,5.07,4.62,7.51,4.52,2.73-.11,5.34-3,8-4.72l-1.15-2.08Z" transform="translate(-70 -8)"/><path d="M413.53,42.76c-.41,3.21-.69,5.4-1,7.64-3.86-.25-7.35-.89-10.71-.51-1.43.16-3.83,2.7-3.63,3.74A6.51,6.51,0,0,0,402,58c3.15.82,6.7.09,9.86.86,2.21.55,4.07,2.54,6.09,3.88l-1,3c-7.56,0-15.15.3-22.67-.23-1.68-.12-4.42-3.11-4.49-4.85-.42-10.69-.21-21.4-.21-32.55,7.58,0,14.2-.3,20.75.2,1.88.14,3.58,2.59,5.37,4-1.76,1.14-3.39,2.91-5.29,3.28-3,.57-6.19-.15-9.18.37-1.47.25-2.67,2.07-4,3.18,1.31,1.21,2.5,3.27,4,3.46C404.92,43.1,408.73,42.76,413.53,42.76Z" transform="translate(-70 -8)"/><path d="M311.93,58.62c1.14,6.17-2.68,7.22-6.55,7.38-4.17.17-8.53-1.34-12.53-.6-8,1.48-8.27-3.05-8.37-8.72-.12-7-1.07-14-.74-20.9.12-2.62,2.58-7.15,4.35-7.34,7.71-.81,15.55-.35,23.48-.35-1.26,9.58-7.12,7.65-11.67,7.64-4,0-7.95-.82-8.8,6.42,4.33,0,8.52-.49,12.52.19,2.16.37,4,2.71,6,4.16-1.94,1.07-3.78,2.57-5.86,3.08s-4.89-.55-6.8.32c-2.09,1-3.52,3.33-5.24,5.09,1.89,1.21,3.7,3.25,5.71,3.47C302.17,59,307,58.62,311.93,58.62Z" transform="translate(-70 -8)"/><path d="M144.43,408c0-10.7,0-20.65,0-30.61,0-1.26.22-2.51.42-4.7,8.79.14,17.93-3.46,25.06,4.7,4.13,4.73,4,18.44.31,24.11C163.62,411.6,153.84,407.54,144.43,408Zm23-16.08-1.77-.82a16.08,16.08,0,0,0,.94-3.5c.23-6.36-3.79-9.85-10.18-10.37-8.31-.67-6.57,4.67-6.4,9.38.1,2.81-.25,5.65.08,8.43.31,2.56.8,6.92,2,7.22,3.14.75,7.53.83,9.89-.9C164.67,399.37,165.69,395.14,167.43,391.9Z" transform="translate(-70 -8)"/><path d="M114.32,48c.91-8,2.86-15.43,10.08-20.8,2.69,7.52-5.87,34.46-13.18,39.62-2.8-4.81-6-9.27-8.1-14.19A154.26,154.26,0,0,1,96.8,33.46c-.4-1.45.86-3.36,1.36-5.06,1.77.56,4.51.6,5.14,1.77,2.12,3.94,3.4,8.33,5.19,12.46,1,2.33,2.39,4.5,3.61,6.75Z" transform="translate(-70 -8)"/><path d="M371.21,372.64c5.58,0,12.24-.69,18.64.34,2.61.42,5.39,4.18,6.79,7.06,3.92,8.09,2.56,16.48-1.5,24-3.36,6.21-17,6.21-23.93,1.44Zm5.69,30.58c5.6-.28,12.65,2.31,15.11-4.81a24.65,24.65,0,0,0-.34-15.58c-1-2.8-6.5-5.11-10.18-5.46-4.9-.47-4.5,4.39-4.56,7.85C376.82,391.06,376.9,396.92,376.9,403.22Z" transform="translate(-70 -8)"/><path d="M336.05,64.58c-6,2.57-8.52.74-8.21-6.22.33-7.62.06-15.29-.18-22.93-.16-5,1.28-7.79,6.91-7.45,5.08.3,10.2.06,15.31.05,2.4,6.73,2.4,6.73-13.94,8.24-1.24,4.4-.15,6.78,5,6.41a17,17,0,0,1,6.81.55,5.11,5.11,0,0,1,2.79,3.84c0,1-2.22,2.65-3.58,2.8a95.85,95.85,0,0,1-10.92.14Z" transform="translate(-70 -8)"/><path d="M474,372.72h25.28c.17.83.35,1.65.53,2.47a74.72,74.72,0,0,1-8.91,1.88c-3.51.32-7.09.07-11.2.07-.26,3.21-.48,5.89-.72,8.79,6.45,1,12.33,1.83,18.18,2.91.21,0,0,2.29,0,3.93-4.38,0-8.57-.6-12.45.24a8.62,8.62,0,0,0-5.38,5.2c-1.11,4,1.75,5.23,5.48,5.11,4.82-.16,9.65,0,14.75,0-3.41,6.5-12.41,7.9-25.58,4V372.72Z" transform="translate(-70 -8)"/><path d="M270.39,407.82H244.45c0-9.78.29-19.44-.12-29.07-.2-4.68,1.1-6.65,5.83-6.53,6.79.16,13.59,0,20.49.95-5.34,7.13-13.53,1.71-20,4.76-.78,5.11-3.16,10.71,6.63,9,3.67-.65,7.82,1.41,11.76,2.23-.15.94-.3,1.88-.44,2.82-4.4.33-8.88,1.34-13.19.84-5.46-.62-5.6,3.2-5.36,6.12.13,1.59,3.15,3.75,5.17,4.17,3.19.67,6.67-.16,10,.14,2,.19,4,1.3,6,2Z" transform="translate(-70 -8)"/><path d="M340.31,371.89c5.88,0,11-.25,16,.06,7,.44,10.37,5.17,9.91,13.27-.38,6.66-3.64,9.46-10.55,9-9.14-.57-9.17-.22-10.1,15.37-2.52-3-5.05-4.56-5.11-6.25C340.12,393.39,340.31,383.38,340.31,371.89Zm2.93,10.2c3.58,3.65,5.94,7.42,7.19,7.08,3.64-1,9.18-3.15,9.68-5.69.84-4.28-3.61-7-8.22-6.28C349.47,377.61,347.34,379.69,343.24,382.09Z" transform="translate(-70 -8)"/><path d="M118.09,399.07c-1.45,10.42-1.81,10.78-8.71,8.63,3.91-10.47,7.68-21,11.86-31.35.82-2,3.24-3.41,5.64-5.82,4.87,11.72,9.06,21.51,12.94,31.42.65,1.67,0,3.87-.07,5.82-1.46-1-3.22-1.71-4.31-3C129.78,398.11,129.84,398.06,118.09,399.07Zm11.59-7-4.34-12.31c-2.24,4.76-3.75,8-5.78,12.31Z" transform="translate(-70 -8)"/><path d="M443.26,372.32c6.11,0,11.44-.06,16.77,0,5.76.07,8.8,4,9,8.83S469,392,461.91,393.25c-1.49.27-3,1.3-4.39,1.12-8.07-1-9,4.1-9.27,10.15-.08,1.54-1.37,3-2.11,4.51-1-1.28-2.72-2.54-2.75-3.84C443.16,394.6,443.26,384,443.26,372.32Zm13.08,3.45c-4.57,1.49-7.81.15-7.71,6.51.08,5,1.75,6.41,5.15,5.65s6.6-3.39,9.87-5.2Z" transform="translate(-70 -8)"/><path d="M238,408.61l-6.23-9.67c-5.56,0-13.82-3.25-16,7.93-.09.47-2.86.41-4.57.63,3.05-10,5.55-19.17,8.78-28.11,1.05-2.92,4-5.14,6.11-7.67,1.51,2.16,3.36,4.16,4.46,6.5,3.38,7.18,6.62,14.43,9.57,21.79.88,2.17.61,4.8.87,7.22Zm-9.85-24.71-2.6-1-3.3,8.56,7,2.67C228.83,389.7,228.5,386.8,228.18,383.9Z" transform="translate(-70 -8)"/><path d="M461.75,36.2l-10.66-.94c1-2.25,1.24-5,2.63-5.78,5.92-3.49,21.6-1.6,26.36,3.71l-10.51,3.47c0,7.42.39,15.11-.23,22.72-.19,2.42-3.06,4.62-4.7,6.92l-2.89-1.25Z" transform="translate(-70 -8)"/><path d="M181.17,36.1c-2.17-.14-3.69.19-4.66-.39a43.6,43.6,0,0,1-5.24-4.22c1.8-1.1,3.56-3.08,5.4-3.17,7.77-.36,15.56-.15,23.35-.15l.77,3.44-11.44,6.1V63.5c-7.09,3.07-8.17,2.42-8.18-4.44Z" transform="translate(-70 -8)"/><path d="M129.45,29.44l8-.59V65h-8Z" transform="translate(-70 -8)"/><path class="cls-1" d="M463.18,348.27c-4.69-.59-8.43-.15-11.16-1.61-4.32-2.3-10.31-5.19-11.4-9-2.29-8,2.53-17.8,8.88-19.32a64,64,0,0,1,22.23-1.47c10.74,1.31,13.7,12.16,12.79,22.08-.24,2.64-4.08,6.12-7,7.11C472.62,347.72,467.14,347.73,463.18,348.27Z" transform="translate(-70 -8)"/><path class="cls-1" d="M380.44,332.86c-1.42,11.64-1.71,11.24-12.86,13.68a46.69,46.69,0,0,1-27.3-2.17c-2.06-.78-4.08-4.1-4.42-6.49-1.08-7.64,1.1-14.68,7.86-18.9,9.66-6,20.3-5.53,29.53.09C377,321.38,378.12,328.13,380.44,332.86Z" transform="translate(-70 -8)"/><path class="cls-1" d="M120,337.14c1.25-9.41,1.51-16.61,9.81-19.6,10.23-3.68,21.05-4.49,28.84,3.26,4,4,5.19,12.5,4.71,18.74-.43,5.65-6.59,7.27-12.56,6.9-7-.43-14,.3-21-.3C123.38,345.58,118.47,342.74,120,337.14Z" transform="translate(-70 -8)"/><path class="cls-1" d="M240.5,313.72C255,314,263,324.1,262,339.38c-.09,1.47-1.53,3.8-2.74,4.09a189.48,189.48,0,0,1-22,4.31c-3.36.41-6.93-1.1-10.43-1.6-7.71-1.11-10.08-5.21-8.4-13,1-4.77-.38-10.4,5.54-12.91C229.46,318,235,315.9,240.5,313.72Z" transform="translate(-70 -8)"/><path class="cls-1" d="M271.31,37.69c.61,20.66-.43,22.27-13.12,19.77V35.3Z" transform="translate(-70 -8)"/><path class="cls-1" d="M211.67,36.23c5.19-.95,10.44-1.29,12.91,4.78,2.08,5.12,3,10.92-2,14.73-2.45,1.87-8.5,3.23-9.57,2C207.82,51.62,207.72,44.25,211.67,36.23Z" transform="translate(-70 -8)"/><path class="cls-1" d="M364,36.08h12.67l1.15,2.08c-2.66,1.69-5.27,4.61-8,4.72-2.44.1-5-2.89-7.51-4.52Z" transform="translate(-70 -8)"/><path class="cls-1" d="M167.43,391.9c-1.74,3.24-2.76,7.47-5.44,9.44-2.36,1.73-6.75,1.65-9.89.9-1.2-.3-1.69-4.66-2-7.22-.33-2.78,0-5.62-.08-8.43-.17-4.71-1.91-10,6.4-9.38,6.39.52,10.41,4,10.18,10.37a16.08,16.08,0,0,1-.94,3.5Z" transform="translate(-70 -8)"/><path class="cls-1" d="M376.9,403.22c0-6.3-.08-12.16,0-18,.06-3.46-.34-8.32,4.56-7.85,3.68.35,9.14,2.66,10.18,5.46a24.65,24.65,0,0,1,.34,15.58C389.55,405.53,382.5,402.94,376.9,403.22Z" transform="translate(-70 -8)"/><path class="cls-1" d="M343.24,382.09c4.1-2.4,6.23-4.48,8.65-4.89,4.61-.76,9.06,2,8.22,6.28-.5,2.54-6,4.71-9.68,5.69C349.18,389.51,346.82,385.74,343.24,382.09Z" transform="translate(-70 -8)"/><path class="cls-1" d="M129.68,392H119.56c2-4.33,3.54-7.55,5.78-12.31Z" transform="translate(-70 -8)"/><path class="cls-1" d="M456.34,375.77l7.31,7c-3.27,1.81-6.37,4.42-9.87,5.2s-5.07-.69-5.15-5.65C448.53,375.92,451.77,377.26,456.34,375.77Z" transform="translate(-70 -8)"/><path class="cls-1" d="M228.18,383.9c.32,2.9.65,5.8,1.14,10.2l-7-2.67,3.3-8.56Z" transform="translate(-70 -8)"/></svg>